<?xml version="1.0" encoding="utf-8"?>
<!-- Generator: Adobe Illustrator 26.0.1, SVG Export Plug-In . SVG Version: 6.00 Build 0)  -->
<svg version="1.1" id="Layer_1" xmlns="http://www.w3.org/2000/svg" xmlns:xlink="http://www.w3.org/1999/xlink" x="0px" y="0px"
	 viewBox="0 0 595.3 512" style="enable-background:new 0 0 595.3 512;" xml:space="preserve">
<style type="text/css">
	.st0{fill:#FEFEFF;}
	.st1{fill:#1C1C72;}
	.st2{fill:#FEFEFE;}
	.st3{fill:#2F2F7D;}
	.st4{fill:#2B2B7B;}
</style>
<path class="st0" d="M330.6,513c-21,0-42,0-63.2-0.4c-1-0.8-1.8-1.4-2.7-1.6c-13.8-3-27.9-5.3-41.5-9c-20-5.5-38.8-14.3-56.6-25
	c-23.9-14.3-44.7-32.3-62.9-53.4c-16.1-18.6-29.1-39-39.1-61.4c-10.1-22.8-17.3-46.4-20.1-71.2c-0.1-0.7-1.3-1.3-1.9-2
	c0-21,0-42,0.4-63.2c0.8-0.7,1.5-1.1,1.6-1.7c2.1-11.1,4-22.2,6.2-33.3c0.3-1.7,1.8-3.1,2.8-4.2c0,25.1,0,49.8,0,74.4
	c0,9.9,1.9,19.5,5.6,28.7C71,319.4,82.7,349,94.6,378.6c4.6,11.4,8.9,14.4,21.1,14.4c27,0.1,54-0.1,81,0.1c6.3,0,11.6-2,16.4-6
	c12.3-10.4,25-20.5,37.2-31.1c3.4-2.9,6.4-6.9,8.1-11c10.5-25.5,20.7-51.1,30.9-76.8c5.1-13,10.8-25.8,10.7-40.2
	c-0.1-30.5,0.2-61,0.1-91.5c-0.1-11.5-3.9-15.1-15.6-15.2c-16-0.2-32-0.1-48,0c-5.5,0-10.3,1.6-14.6,5.4
	c-11.3,9.9-22.7,19.7-34.4,29c-6.1,4.8-8.5,10.5-8.4,18.1c0.3,18.8,0.1,37.7,0.1,56.5c0,1.8,0,3.6,0,5.4c-0.5,0-1.1,0.1-1.6,0.1
	c-0.6-4.6-1.6-9.3-1.6-13.9c-0.2-27.8,0-55.7-0.1-83.5c0-12.4-4.4-16.9-16.9-17c-16.2-0.2-32.3-0.1-48.5,0c-5.5,0-10.3,1.7-14.5,5.5
	c-8.6,7.6-17.5,14.9-26.3,22.3c-1.1,0.9-2.8,1.3-4.2,1.5c4.4-8.8,8.4-17.4,13.1-25.5c14-24.1,32.2-44.8,53.3-63
	C150.6,46,171,33,193.5,23c22.8-10.1,46.4-17.3,71.2-20.1c0.7-0.1,1.3-1.3,2-1.9c21,0,42,0,63.2,0.4c1,0.8,1.8,1.4,2.7,1.6
	c13.8,3,27.9,5.3,41.5,9c17.8,4.8,34.7,12.4,50.8,21.6c16.7,9.5,32.5,20.3,46.3,33.6c10.2,9.8,19.9,20.3,29.1,31.1
	c5.9,6.9,10.4,15.1,15,22.8c-28.4,0.1-56.4,0.1-84.4,0.2c-19.3,0.1-37.9,3.1-53.4,15.9c-13.4,11-26.6,22.2-39.8,33.4
	c-9.9,8.4-17.3,18.9-17.9,31.8c-1.1,20.7-1.3,41.6,0.1,62.3c1.1,16.6,11.9,27.6,26.8,34.5c2.4,1.1,4.8,2.1,7.6,3.3
	c-9.9,8.4-19.3,16.5-29.1,24.3c-4.8,3.9-7.2,8.5-7.2,14.6c0,12.3-0.2,24.7,0.1,37c0.3,10.7,4.4,14.7,15.2,14.7
	c35.5,0.1,71,0.3,106.5-0.2c18.1-0.2,34.6-5.9,48.5-18.2c11.9-10.4,24.1-20.5,36.3-30.6c11-9.1,18.2-20.7,19-35
	c1-17.3,1.3-34.6,0.6-51.9c-0.9-24-14.9-38.2-37-45.3c-2.1-0.7-4.3-1.4-7-2.2c8.8-7.4,16.9-14.5,25.5-21.1c5.4-4.2,7.7-9.3,7.6-15.9
	c-0.1-6,0.3-11.9,0.8-17.7c0.5,0.8,0.4,1.5,0.7,2.1c9.6,21.2,15.4,43.4,18,66.4c0.1,0.5,1.2,1,1.9,1.5c0,21,0,42-0.4,63.2
	c-0.8,1-1.4,1.8-1.6,2.7c-3,13.8-5.3,27.9-9,41.5c-5.5,20-14.3,38.8-25,56.6c-14.3,23.9-32.3,44.7-53.4,62.9
	c-18.6,16.1-39,29.1-61.4,39.1c-22.8,10.1-46.4,17.3-71.2,20.1C331.9,511.2,331.3,512.3,330.6,513z"/>
<path class="st1" d="M53.5,186.6c0.1-7.6-1-15,0.8-21.8c1.1-4.4,6.3-7.8,10.4-11.9c0.8-0.8,0.8-1.4,0.9-2c0,0,0,0.1-0.1,0.1
	c1.4-0.6,3-1,4.2-1.9c8.9-7.3,17.7-14.6,26.3-22.3c4.3-3.8,9-5.5,14.5-5.5c16.2-0.1,32.3-0.1,48.5,0c12.5,0.1,16.8,4.6,16.9,17
	c0.1,27.8-0.1,55.7,0.1,83.5c0,4.6,1,9.3,1.6,13.9c0.5,0,1.1-0.1,1.6-0.1c0-1.8,0-3.6,0-5.4c0-18.8,0.2-37.7-0.1-56.5
	c-0.1-7.6,2.3-13.2,8.4-18.1c11.7-9.3,23.1-19.1,34.4-29c4.3-3.8,9.1-5.4,14.6-5.4c16,0,32-0.1,48,0c11.7,0.1,15.5,3.7,15.6,15.2
	c0.1,30.5-0.2,61-0.1,91.5c0,14.4-5.6,27.2-10.7,40.2c-10.1,25.6-20.3,51.3-30.9,76.8c-1.7,4.1-4.8,8.1-8.1,11
	c-12.2,10.6-24.8,20.7-37.2,31.1c-4.8,4.1-10.1,6.1-16.4,6c-27-0.1-54,0-81-0.1c-12.2,0-16.6-3-21.1-14.4
	C82.7,349,71,319.4,59.1,289.7c-3.7-9.2-5.6-18.8-5.6-28.7C53.6,236.4,53.5,211.7,53.5,186.6 M288.6,124.9
	c-17.3-0.1-34.6-0.2-52-0.2c-10.1,0-12.9,2.9-12.9,13.2c0,28,0.1,56-0.1,84c0,4.8-0.7,9.7-2.1,14.2c-4.8,15.2-10,30.3-15,45.4
	c-1.3,4.1-3.4,6.4-8.1,6.4c-4.6,0-6.8-2-8.2-6.3c-4.8-14.9-10-29.6-14.7-44.5c-1.6-5-2.5-10.4-2.6-15.6c-0.2-27.8-0.1-55.6-0.1-83.5
	c0-10.3-3-13.3-13.5-13.4c-16-0.1-32,0-48,0c-10.8,0-13.4,2.8-13.4,13.7c0,27.7,0,55.3,0,83c0,12,1.9,23.5,6.4,34.6
	c11.7,29.1,23.4,58.3,34.8,87.5c3.2,8.2,8.8,11.5,17.2,11.5c27.5-0.1,55,0,82.5,0c9.6,0,13.4-2.7,17-11.6
	c11.2-27.9,22.6-55.7,33.4-83.8c3.3-8.6,6.8-17.8,7.1-26.8c0.9-32.8,0.5-65.6,0.5-98.4C296.7,129.5,294.5,126.1,288.6,124.9z"/>
<path class="st1" d="M515.2,121.1c2-0.1,3.5-0.1,4.9-0.1c8.2,0.3,13.3,5.2,13.4,13.5c0.1,6.5,0,13,0,19.9
	c-0.2,6.4-0.5,12.4-0.5,18.4c0.1,6.6-2.2,11.7-7.6,15.9c-8.5,6.6-16.7,13.8-25.5,21.1c2.8,0.9,4.9,1.6,7,2.2
	c22.2,7.1,36.1,21.2,37,45.3c0.7,17.3,0.4,34.6-0.6,51.9c-0.8,14.3-8,25.8-19,35c-12.2,10.1-24.4,20.1-36.3,30.6
	c-14,12.2-30.4,17.9-48.5,18.2c-35.5,0.5-71,0.3-106.5,0.2c-10.8,0-15-3.9-15.2-14.7c-0.3-12.3-0.1-24.7-0.1-37
	c0-6.1,2.3-10.7,7.2-14.6c9.7-7.8,19.1-16,29.1-24.3c-2.9-1.2-5.3-2.2-7.6-3.3c-14.9-6.9-25.7-17.9-26.8-34.5
	c-1.4-20.7-1.2-41.5-0.1-62.3c0.7-12.9,8-23.4,17.9-31.8c13.3-11.2,26.5-22.3,39.8-33.4c15.5-12.8,34.1-15.8,53.4-15.9
	C458.8,121.2,486.8,121.3,515.2,121.1 M517.7,124.9c-30.7,0-61.3-0.2-92,0.1c-7.9,0.1-15.9,1.4-23.7,3.2
	c-21.3,4.9-36.5,20.8-38.3,42.1c-1.5,17.5-1.3,35.3-0.6,52.9c0.8,21.5,13.3,34.4,33.1,40.7c5.8,1.9,11.9,3.1,18,4.1
	c15.1,2.3,30.3,4.3,45.5,6.4c3.9,0.5,6.9,1.9,8.2,6.2c2.5,8.7-1.2,14.1-10.3,14.1c-26.8,0-53.7,0-80.5,0c-12.3,0-14.5,2.3-14.5,14.7
	c0,10.7,0,21.3,0,32c0,11.1,2.7,13.8,13.9,13.8c32.8,0,65.6,0.1,98.5-0.1c7.1,0,14.3-0.7,21.3-2c26.6-4.9,43.1-22.5,44.8-49.2
	c1-15.9,0.3-32-0.3-47.9c-0.8-19.1-11.2-31.5-28.6-38.2c-5.1-2-10.4-3.7-15.8-4.5c-17.4-2.7-34.9-4.9-52.4-7.5
	c-6.3-0.9-9.1-4.8-8.6-11.2c0.4-5.8,3.5-8.4,10.1-8.4c22.8,0,45.7,0,68.5,0c1.5,0,3,0.1,4.5,0c8.5-0.5,11.4-3.3,11.4-11.8
	c0.1-10-0.1-20-0.2-30.9c0-2.5,0.1-5,0-7.5C529.2,128.6,525.7,125.3,517.7,124.9z"/>
<path class="st0" d="M65.3,151c0.2,0.5,0.2,1.1-0.3,1.8C64.7,152.3,64.9,151.7,65.3,151z"/>
<path class="st2" d="M289,125c5.5,1.1,7.7,4.5,7.7,9.4c0,32.8,0.4,65.6-0.5,98.4c-0.2,9-3.8,18.2-7.1,26.8
	c-10.8,28.1-22.2,55.9-33.4,83.8c-3.6,8.9-7.4,11.6-17,11.6c-27.5,0.1-55,0-82.5,0c-8.4,0-14-3.3-17.2-11.5
	c-11.4-29.3-23.2-58.4-34.8-87.5c-4.5-11.1-6.4-22.7-6.4-34.6c0.1-27.7,0-55.3,0-83c0-11,2.7-13.7,13.4-13.7c16,0,32-0.1,48,0
	c10.4,0,13.4,3.1,13.5,13.4c0,27.8-0.1,55.6,0.1,83.5c0,5.2,1,10.6,2.6,15.6c4.6,14.9,9.9,29.6,14.7,44.5c1.4,4.3,3.6,6.2,8.2,6.3
	c4.7,0,6.8-2.3,8.1-6.4c4.9-15.2,10.2-30.2,15-45.4c1.4-4.5,2.1-9.5,2.1-14.2c0.2-28,0.1-56,0.1-84c0-10.3,2.8-13.2,12.9-13.2
	C253.9,124.7,271.2,124.8,289,125 M172.3,319c-2.6-4.4-5.6-8.7-7.6-13.3c-7-16.3-13.6-32.9-20.5-49.2c-4.2-9.9-6.6-20.2-6.6-31
	c0-22.5,0-45-0.2-67.5c0-1.6-1-3.1-1.5-4.7c-0.6,1.6-1.8,3.2-1.8,4.8c-0.1,21.3-0.1,42.7-0.1,64c0,12.8,2.1,25,7.4,36.9
	c6.5,14.6,12.1,29.5,18.4,44.2c2.2,5.2,5,10.1,7.8,15c3.2,5.4,8.3,8,14.6,8c7.5,0.1,15.1-0.7,22.5,0.2c15.6,2,24.5-5.6,29.7-19.3
	c0.5-1.2,1-2.4,1.5-3.7c6.1-14.9,12.1-29.9,18.5-44.7c5.1-11.7,7.3-23.8,7.3-36.4c0-21.5,0-43,0-64.5c0-1,0.2-2-0.1-3
	c-0.2-0.6-0.9-1.5-1.5-1.5c-0.6,0-1.5,0.7-1.7,1.3c-0.3,1.3-0.1,2.6-0.1,4c0,16.7-0.5,33.3,0.1,50c0.8,20.9-2.7,40.6-11.7,59.6
	c-6.9,14.5-12.6,29.6-19,44.4c-3.2,7.4-9,10.6-17.1,10.4c-8.8-0.2-17.7,0.3-26.5-0.2C180.2,322.6,176.5,320.7,172.3,319z"/>
<path class="st2" d="M529.6,144c0.1,10,0.3,20,0.2,30c0,8.4-2.9,11.3-11.4,11.8c-1.5,0.1-3,0-4.5,0c-22.8,0-45.7,0-68.5,0
	c-6.6,0-9.6,2.6-10.1,8.4c-0.5,6.4,2.3,10.3,8.6,11.2c17.5,2.5,35,4.7,52.4,7.5c5.4,0.8,10.7,2.5,15.8,4.5
	c17.4,6.8,27.9,19.2,28.6,38.2c0.6,16,1.3,32,0.3,47.9c-1.7,26.8-18.1,44.3-44.8,49.2c-7,1.3-14.2,2-21.3,2
	c-32.8,0.2-65.6,0.1-98.5,0.1c-11.2,0-13.9-2.7-13.9-13.8c0-10.7,0-21.3,0-32c0-12.4,2.2-14.7,14.5-14.7c26.8,0,53.7,0,80.5,0
	c9.1,0,12.8-5.4,10.3-14.1c-1.2-4.2-4.3-5.6-8.2-6.2c-15.2-2.1-30.4-4-45.5-6.4c-6.1-0.9-12.1-2.2-18-4.1
	c-19.8-6.3-32.4-19.2-33.1-40.7c-0.6-17.6-0.9-35.4,0.6-52.9c1.9-21.3,17.1-37.2,38.3-42.1c7.7-1.8,15.7-3.1,23.7-3.2
	c30.6-0.3,61.3-0.1,92.5,0.3C522.4,131.8,526,137.9,529.6,144 M412,232.3c5.7,1.2,11.3,2.6,17,3.7c19.2,4,38.5,7.7,57.6,12.1
	c10,2.3,15.2,8.5,16,18.6c0.7,9.6,1,19.3,0.6,28.9c-0.7,14.3-9.8,24-24,26.5c-3.4,0.6-6.9,0.8-10.4,0.8c-24.5,0.1-49,0-73.5,0.1
	c-1.2,0-2.5,0.8-3.7,1.2c0.9,0.6,1.7,1.9,2.6,1.9c27.5,0,55,0.4,82.5-0.3c16.2-0.4,28.4-12.2,29.7-27.8c0.9-9.9,0.8-20-0.1-29.9
	c-1.4-14.6-7.7-21.1-22.3-24.2c-22.3-4.7-44.6-9.2-66.9-13.8c-11.4-2.4-16-7.8-16.2-19.4c-0.2-9.7-0.3-19.3,0-29
	c0.3-10.9,5.8-18.8,16-22.5c4.7-1.7,10.1-2.3,15.1-2.4c21.5-0.2,43-0.1,64.5-0.2c1.6,0,3.2-1.2,4.8-1.8c-1.5-0.5-3-1.5-4.6-1.5
	c-19-0.1-38-0.1-57,0c-5.7,0-11.4,0.1-16.9,0.8c-14.8,1.9-24.9,13.3-25.1,28.2c-0.1,9.8,0,19.7,0,29.5
	C397.5,221.5,401.6,228.7,412,232.3z"/>
<path class="st3" d="M172.5,319.3c4,1.4,7.7,3.3,11.5,3.5c8.8,0.5,17.7,0,26.5,0.2c8.1,0.2,13.9-2.9,17.1-10.4
	c6.4-14.8,12.1-29.9,19-44.4c9-19,12.5-38.7,11.7-59.6c-0.6-16.6-0.1-33.3-0.1-50c0-1.3-0.1-2.7,0.1-4c0.1-0.6,1.1-1.3,1.7-1.3
	c0.5,0,1.3,0.9,1.5,1.5c0.3,0.9,0.1,2,0.1,3c0,21.5,0,43,0,64.5c0,12.6-2.1,24.7-7.3,36.4c-6.5,14.8-12.4,29.8-18.5,44.7
	c-0.5,1.2-1.1,2.4-1.5,3.7c-5.2,13.7-14,21.2-29.7,19.3c-7.4-0.9-15-0.2-22.5-0.2c-6.3-0.1-11.4-2.6-14.6-8c-2.9-4.8-5.6-9.8-7.8-15
	c-6.3-14.7-11.9-29.6-18.4-44.2c-5.3-11.8-7.3-24.1-7.4-36.9c0-21.3,0-42.7,0.1-64c0-1.6,1.2-3.2,1.8-4.8c0.5,1.6,1.5,3.1,1.5,4.7
	c0.1,22.5,0.1,45,0.2,67.5c0,10.8,2.4,21.1,6.6,31c6.9,16.4,13.5,32.9,20.5,49.2C166.6,310.3,169.7,314.6,172.5,319.3z"/>
<path class="st4" d="M411.6,232.1c-10-3.5-14.1-10.6-14.1-20.4c0-9.8-0.1-19.7,0-29.5c0.2-14.9,10.3-26.3,25.1-28.2
	c5.6-0.7,11.3-0.7,16.9-0.8c19-0.1,38-0.1,57,0c1.5,0,3,1,4.6,1.5c-1.6,0.6-3.2,1.8-4.8,1.8c-21.5,0.1-43-0.1-64.5,0.2
	c-5.1,0.1-10.4,0.6-15.1,2.4c-10.1,3.8-15.7,11.6-16,22.5c-0.3,9.7-0.2,19.3,0,29c0.2,11.5,4.8,17,16.2,19.4
	c22.3,4.6,44.7,9.1,66.9,13.8c14.5,3.1,20.9,9.6,22.3,24.2c0.9,9.9,1,20,0.1,29.9c-1.4,15.6-13.5,27.3-29.7,27.8
	c-27.5,0.8-55,0.3-82.5,0.3c-0.9,0-1.7-1.2-2.6-1.9c1.2-0.4,2.5-1.2,3.7-1.2c24.5-0.1,49,0,73.5-0.1c3.5,0,7-0.2,10.4-0.8
	c14.2-2.5,23.3-12.1,24-26.5c0.5-9.6,0.1-19.3-0.6-28.9c-0.7-10.1-6-16.3-16-18.6c-19.1-4.3-38.4-8.1-57.6-12.1
	C423.3,234.8,417.7,233.5,411.6,232.1z"/>
</svg>
