<?xml version="1.0" encoding="utf-8"?>
<!-- Generator: Adobe Illustrator 26.0.1, SVG Export Plug-In . SVG Version: 6.00 Build 0)  -->
<svg version="1.1" id="Layer_1" xmlns="http://www.w3.org/2000/svg" xmlns:xlink="http://www.w3.org/1999/xlink" x="0px" y="0px"
	 viewBox="0 0 595.3 512" style="enable-background:new 0 0 595.3 512;" xml:space="preserve">
<style type="text/css">
	.st0{fill:#FDFDFE;}
	.st1{fill:#2A2A7B;}
	.st2{fill:#2B2B7B;}
	.st3{fill:#2C2C7C;}
	.st4{fill:#29297A;}
	.st5{fill:#272779;}
	.st6{fill:#282879;}
	.st7{fill:#2A2A7A;}
	.st8{fill:#262678;}
	.st9{fill:#2D2D7C;}
	.st10{fill:#30307E;}
	.st11{fill:#232376;}
	.st12{fill:#252577;}
	.st13{fill:#2E2E7D;}
	.st14{fill:#343481;}
	.st15{fill:#191970;}
</style>
<path class="st0" d="M266.6,1c21,0,42,0,63.2,0.4c1,0.8,1.8,1.4,2.7,1.6c13.8,3,27.9,5.3,41.5,9c20,5.5,38.8,14.3,56.6,25
	c23.9,14.3,44.7,32.3,62.9,53.4c16.1,18.6,29.1,39,39.1,61.4c10.1,22.8,17.3,46.4,20.1,71.2c0.1,0.7,1.3,1.3,1.9,2
	c0,21,0,42-0.4,63.2c-0.8,1-1.4,1.8-1.6,2.7c-3,13.8-5.3,27.9-9,41.5c-5.5,20-14.3,38.8-25,56.6c-14.3,23.9-32.3,44.7-53.4,62.9
	c-18.6,16.1-39,29.1-61.4,39.1c-22.8,10.1-46.4,17.3-71.2,20.1c-0.7,0.1-1.3,1.3-2,1.9c-21,0-42,0-63.2-0.4c-1-0.8-1.8-1.4-2.7-1.6
	c-13.8-3-27.9-5.3-41.5-9c-20-5.5-38.8-14.3-56.6-25c-23.9-14.3-44.7-32.3-62.9-53.4c-16.1-18.6-29.1-39-39.1-61.4
	c-10.1-22.8-17.3-46.4-20.1-71.2c-0.1-0.7-1.3-1.3-1.9-2c0-21,0-42,0.4-63.2c0.8-1,1.4-1.8,1.6-2.7c3-13.8,5.3-27.9,9-41.5
	c5.5-20,14.3-38.8,25-56.6C92.9,101,110.9,80.3,132,62.1C150.6,46,171,33,193.5,23c22.8-10.1,46.4-17.3,71.2-20.1
	C265.4,2.8,266,1.7,266.6,1 M130.4,205.9c0,5.9,0,11.8,0,18.1c3.5,0,6.3,0,9.5,0c-0.1,2.1-0.2,3.7-0.2,5.3c-8.4,0-16.2,0-24.2,0
	c0-1.8,0-3.4,0-5.1c2.5-0.2,4.7-0.3,7-0.5c-0.1-4.3-0.6-4.4-10.9-3.3c0,4.2,0,8.5,0,12.9c10.9,0,21.4,0,32,0c0-4.5,0-8.8,0-13.4
	c-3.1,0-5.9,0-9.1,0c0-6.4,0-12.5,0-18.8c-4.7,0-9,0-13.7,0c0,3.1,0,6,0,9.3c-2.1-0.1-3.7-0.2-5.3-0.3c-0.1-3.2-0.3-6-0.4-9.4
	c-6.4,0-12.7,0-19.1,0c0.2-2.2,0.3-3.8,0.4-5.8c3.3,0,6.2,0,9.5,0c0-9.7,0-19,0-28.3c5.2,0,9.9,0,14.8,0c0,1.9,0,3.4,0,5.5
	c-3.1,0-6,0-8.8,0c0,4.7,0,9,0,13.5c9.5,0,18.6,0,28.4,0c0,6.5,0,12.8,0,19.4c3.6,0,6.5,0,9.8,0c0,6.6,0,12.6,0,19.1
	c6.6,0,12.6,0,19,0c0,3.2,0,6,0,9.1c3.2,0.2,6.1,0.3,9.2,0.4c0,8.3,0,16.3,0,24.9c-3.3,0-6.2,0-9.1,0c0,4.7,0,8.8,0,13.3
	c3.2,0,6.1,0,9.5,0c0,16.2,0,31.9,0,47.7c4.7,0,9,0,13.6,0c0-9.6,0-18.9,0-28.3c8.3,0,16.3,0,24.8,0c0,3.2,0,6.3,0,9.8
	c3.5,0,6.5,0,9.6,0c-0.1,1.9-0.1,3.4-0.2,5c-3.2,0.2-6.1,0.3-9.6,0.5c0,12.8,0,25.3,0,38.4c-3.4,0-6.3,0-9.6,0c0,3.3,0,6,0,9
	c-2,0-3.5,0-5.5,0c0-7.9-0.1-15.5,0-23.2c0.1-3-0.9-4-3.8-2.9c0,10,0,20,0,30c4.5,0,8.7,0,13.3,0c0-3.1,0-5.9,0-9.1
	c3.3,0,6.2,0,9.6,0c0-13.1,0-25.6,0-38.3c3.4-0.2,6.4-0.3,9.4-0.4c0-4.5,0-8.8,0-13.4c-3.3,0-6.2,0-9.5,0c0-3.4,0-6.3,0-9.3
	c-11,0-21.6,0-32.7,0c0,9.6,0,19,0,28.7c-2.2-0.1-3.7-0.2-5.6-0.3c0-16.1,0-31.7,0-47.7c-3.3,0-6.2,0-9.3,0c0-2,0-3.6,0-5.4
	c3.2-0.2,6.3-0.3,9.3-0.4c0-11,0-21.5,0-32.3c-3.1-0.1-6.1-0.3-9.3-0.4c-0.2-3.1-0.3-6.2-0.5-9.7c-6.6,0-12.6,0-19.1,0
	c0-6.5,0-12.6,0-19.1c-3.4,0-6.3,0-9.6,0c0-6.5,0-12.6,0-19.2c-9.7,0-18.9,0-28.5,0c0.1-2.1,0.2-3.6,0.3-5.7c3.4,0,6.3,0,9.1,0
	c0-4.6,0-8.7,0-13.1c-7.7,0-15.1,0-22.9,0c0,9.5,0,18.8,0,28.5c-3.3,0-6.2,0-9.4,0c0,4.7,0,8.9,0,13.6c6.4,0,12.5,0,18.8,0
	c0.2,3.4,0.4,6.3,0.5,9.2c4.6,0,8.8,0,13.5,0c0-3.2,0-6.1,0-9.3C126.9,204.9,128.4,205,130.4,205.9 M394.5,185.7
	c0,7.3,0,14.6,0,22.4c13,0,25.6,0,38.4,0c0,3.4,0,6.2,0,9.2c7.7,0,15.1,0,22.6,0c0-4.5,0-8.7,0-13.5c-3.2,0-6.1,0-9.3,0
	c0-3.3,0-6.1,0-9.3c-9.6,0-18.8,0-28.4,0c-0.1-3.4-0.3-6.3-0.4-9.6c-3.2,0-6.1,0-9.5,0c0-6.5,0-12.6,0-18.9c-14.3,0-28.2,0-41.9,0
	c0,4.6,0,8.8,0,13.3c3.2,0,6,0,9,0c0,1.9,0,3.5,0,5.2c-5.1,0-9.9,0-15.3,0c0-3.3,0-6.2,0-9.5c-3.2,0-6,0-9,0c0-2,0-3.5,0-5.7
	c3.1,0,6,0,9.2,0c0-3.4,0-6.2,0-9.5c9.7,0,19.1,0,28.6,0c0-4.7,0-8.8,0-13.5c-6.3,0-12.4-0.1-18.5,0.1c-1,0-1.9,1.7-2.9,2.6
	c0.3,0.5,0.6,0.9,0.9,1.4c5.4,0,10.9,0,16.5,0c0,2,0,3.6,0,5.8c-9.6,0-19,0-28.7,0c0,3.4,0,6.2,0,9.2c-3.3,0.2-6.2,0.4-8.9,0.5
	c0,4.7,0,8.9,0,13.4c3.2,0,5.9,0,8.8,0c0.2,3.3,0.3,6.2,0.4,9.2c7.8,0,15.2,0,22.7,0c0-4.6,0-8.8,0-13.3c-3.2-0.2-6.1-0.3-9.3-0.5
	c0.1-2,0.2-3.6,0.3-4.9c11.6,0,22.6,0,34.2,0c0,6.4,0,12.5,0,19c3.4,0,6.3,0,9.7,0c0,3.3,0,6.3,0,9.6c9.7,0,19,0,28.4,0
	c0.2,3.3,0.4,6.3,0.5,9.5c3.1,0,5.9,0,9.1,0c-0.1,2.1-0.2,3.7-0.3,5.4c-5.2,0-9.9,0-14.9,0c0-3.1,0-6,0-9.5c-13,0-25.6,0-38.5,0
	c0-9.8,0-19.1,0-28.5c-4.6,0-8.9,0-13.5,0c0,6.4,0,12.5,0,19.1c-6.5,0-12.6,0-18.7,0c0,4.7,0,9,0,13.7c3.2,0,6.1,0,9.6,0
	c0,3.4,0,6.3,0,9.5c3.3,0,6.1,0,8.8,0c0,5.3,0,10.1,0,15.3c-3.2,0-6,0-9.1,0c0,9.1-0.1,17.9,0.1,26.7c0,1.3,1.1,2.6,1.7,3.9
	c0.7-1.4,2-2.7,2-4.1c0.2-7.4,0.1-14.9,0.1-22.8c3.5,0,6.4,0,9.3,0c0-7.9,0-15.4,0-23c-3.1-0.1-6-0.3-9.1-0.4
	c-0.2-3.4-0.3-6.3-0.5-9.5c-3.3,0-6.1,0-9,0c0-1.9,0-3.5,0-5.5c6.3,0,12.4,0,19,0c0-6.7,0-12.9,0-19.4c2.1,0.2,3.7,0.3,5.6,0.4
	C394.5,181.4,394.5,183.1,394.5,185.7 M293.6,175.5c0,2,0,3.9,0,6.2c-2.1-0.1-3.7-0.2-5.5-0.3c-0.2-3.3-0.4-6.2-0.5-9.1
	c-4.5,0-8.6,0-13.2,0c0,19.1,0,38,0,57.1c-3.5,0.2-6.4,0.3-9.3,0.5c0,4.6,0,8.8,0,13c4,0,7.6,0,11.4,0c0-6.4-5.6-2.1-7.8-4.6
	c0.1-1.3,0.1-2.8,0.2-4.4c3.4-0.2,6.3-0.3,9.6-0.5c0-19.3,0-38,0-57.1c1.9,0,3.5,0,5.5,0c0,3.1,0,6,0,9c4.8,0,9,0,13.2,0
	c0-7.7,0-15.1,0-22.7c-3.3-0.1-6.2-0.3-9.6-0.4c0-6.6,0-12.7,0-18.8c-4.6,0-8.7,0-13.2,0c0,6.4,0,12.4,0,18.7c-5.2,0-10,0-15,0
	c0-1.8,0-3.3,0-5.4c3.2,0,6.1,0,9,0c0-4.8,0-9,0-13.3c-7.7,0-15.1,0-22.9,0c0,6.4,0,12.5,0,19.2c-9.8,0-19.2,0-28.5,0
	c0,20.7,0,40.8,0,61c4.5,0,8.7,0,13.5,0c0-3.2,0-6.1,0-9c5.3,0,10,0,15.2,0c0,6.4,0,12.5,0,19.1c3.4,0,6.3,0,9.2,0
	c0.2,2.7,0.3,4.8,0.5,6.9c4.1,0.2,4.9-2.8,2.9-11.1c-2.7,0-5.5,0-8.7,0c0-6.4,0-12.5,0-18.9c-7.9,0-15.3,0-23.2,0c0,3.2,0,6.1,0,9.2
	c-2.1,0-3.7,0-5.3,0c0-17.9,0-35.6,0-53.6c9.7,0,19,0,28.6,0c0-6.5,0-12.6,0-18.9c5.2,0,9.9,0,14.6,0c0,1.9,0,3.6,0,5.7
	c-3.2,0-5.9,0-8.8,0c0,4.6,0,8.8,0,13c7.8,0,15.2,0,23,0c0-6.4,0-12.5,0-19c2,0.1,3.6,0.2,5.6,0.3c0,6.6,0,12.6,0,19.2
	c3.4,0,6.3,0,9.4,0C293.6,169.5,293.6,172,293.6,175.5 M451.9,273.9c0,3.6,0,7.2,0,11.2c3.7,0,6.6,0,9.4,0c0,8.4,0,16.3,0,24.2
	c-5,0-9.8,0-14.6,0c0-1.9,0-3.4,0-5.5c3.2,0,6.1,0,8.9,0c0-4.7,0-8.8,0-13.1c-3.1-0.2-6-0.4-9.4-0.6c0-6.5,0-12.6,0-18.7
	c-11.1,0-21.7,0-32.3,0c0,4.5,0,8.8,0,13.5c3.2,0,6.1,0,9.4,0c-0.1,2.1-0.2,3.6-0.3,4.4c-2.5,2.4-7.9-1.5-7.3,4.7
	c3.9,0,7.5,0,11.1,0c0-4.5,0-8.7,0-13.3c-3.2,0-5.9,0-8.8,0c0-2,0-3.7,0-5.4c8.3,0,16.2,0,24.5,0c0,6.4,0,12.5,0,18.7
	c3.3,0.2,6.2,0.4,9.4,0.6c-0.1,2-0.2,3.6-0.3,5.5c-3.2,0-6,0-8.9,0c0,4.6,0,8.8,0,13.1c7.7,0,15.1,0,22.5,0c0-10.9,0-21.5,0-32.5
	c-3.2,0-6.2,0-9.2,0c0-2,0-3.6,0-5.6c3.2,0,6.1,0,9.2,0c0-4.7,0-8.9,0-13.6c-12.7,0-25.1,0-37.9,0c0-2,0-3.6,0-5.8
	c6.3,0,12.5,0,18.6,0c0.9-11,0.8-11.3-3.5-10.9c-0.1,2.2-0.2,4.5-0.4,7.2c-6.4,0-12.5,0-18.8,0c0,4.7,0,8.9,0,13.5
	c12.7,0,25.2,0,37.8,0c0,2,0,3.5,0,5.5c-2,0-3.8-0.2-5.5,0.1C454.5,271.4,453.2,272.4,451.9,273.9 M240.2,296.9
	c-1.4,0.1-2.8,0.3-4,0.4c0,11,0,21.4,0,32c4.6,0,8.8,0,13.5,0c0-6.4,0-12.5,0-18.7c3.4-0.2,6.3-0.3,9.4-0.5c0-6.3,0.1-12.1-0.1-17.9
	c0-1.2-1.5-2.3-2.2-3.5c-0.5,0.3-1.1,0.5-1.6,0.8c0,5.4,0,10.9,0,16.6c-3.4,0.2-6.3,0.4-9.6,0.6c0,6.4,0,12.5,0,18.7
	c-2,0-3.6,0-5.5,0c0-8.2,0-16.1,0-24.3c3.1-0.1,6.1-0.3,9.1-0.4c0-4.7,0-9,0-13.7c-6.4,0-12.3,0-18.5,0c0-1.9,0-3.4,0-5.4
	c12.7,0,25.1,0,37.8,0c0-7.9,0-15.3,0-22.8c-4.4,0-8.6,0-13,0c-0.2,3.2-0.3,6.1-0.5,9.3c-2-0.1-3.6-0.2-5.4-0.2c0-3.2,0-6,0-9
	c-4.7,0-9,0-13.9,0c0,3.3,0,6.2,0,9.1c-2.6,0.1-4.7,0.2-7.2,0.3c0.1,1.4,0.1,2.5,0.2,3.4c3.9,0,7.4,0,11.4,0c0-3.2,0-5.9,0-9
	c2,0,3.6,0,5.6,0c0,3,0,5.9,0,9.1c4.6,0,8.9,0,13.3,0c0.1-3.2,0.3-6.1,0.4-9.1c2,0,3.4,0,5,0c0,5.1,0,9.9,0,15.3
	c-12.8,0-25.2,0-37.7,0c0,4.6,0,8.7,0,13.4c6.4,0,12.6,0,19,0c-0.1,2.2-0.2,3.8-0.3,5.7C243.7,296.9,242.4,296.9,240.2,296.9
	 M397.1,319.1c-5.9,0-11.8,0-18.1,0c0-3.5,0-6.3,0-9.3c-3.3-0.1-6.2-0.3-9.6-0.4c0-3.3,0-6.2,0-9c-7.9,0-15.3,0-23.1,0
	c0,3.1,0,5.9,0,9c-3.4,0.2-6.4,0.4-9.3,0.5c0,4.6,0,8.7,0,13.3c6.4,0,12.5,0,18.7,0c0,2.1,0,3.7,0,5.9c-6.4,0-12.6,0-19.2,0
	c0,3.4,0,6.2,0,9.3c-1.9-0.1-3.5-0.2-5.2-0.2c-0.2-3.3-0.3-6.2-0.4-9.5c-6.6,0-12.7,0-18.8,0c0-8.4,0-16.3,0-24.7
	c8,0,15.8-0.1,23.6,0c3.3,0,3.5-1.3,2.6-3.6c-10.3,0-20.2,0-30,0c0,10.9,0,21.5,0,32.5c6.4,0,12.5,0,18.7,0c0.2,3.4,0.3,6.3,0.5,9.2
	c4.6,0,8.7,0,13.3,0c0-3.1,0-6,0-9.4c6.5,0,12.6,0,18.8,0c0-4.7,0-9,0-13.7c-6.3,0-12.4,0-18.6,0c0-2.1,0-3.6,0-5.7
	c3.2,0,6.1,0,9.2,0c0.2-3.4,0.3-6.3,0.4-9.2c5.2,0,9.9,0,15.1,0c0,3.2,0,6.1,0,9.5c3.3,0,6.3,0,9.3,0c0.2,3.3,0.3,6.1,0.4,9.1
	c10.8,0,21.4,0,32.1,0c0-3.8,0-7.3,0-11.3c-6,0-2.4,5.1-4.5,7.5C401.7,319.1,399.9,319.1,397.1,319.1 M124.7,240.7
	c-1.3-0.5-2.7-1.5-4-1.5c-4.9-0.2-9.9-0.1-15.1-0.1c0-8.3,0-15.9,0-23.5c0-3.1-0.1-3.1-3.6-2.7c0,10.1,0,20.1,0,30.4
	c6.3,0,12.3,0,18.9,0c0,3.3,0,6.3,0,9.7c13.1,0,25.5,0,38.3,0c-0.1,2-0.2,3.5-0.3,5.6c-3.3,0-6.2,0-8.9,0c0,4.8,0,9.1,0,13.6
	c3.2,0,6,0,8.9,0c0,1.9,0,3.4,0,5.5c-6.4,0-12.5,0-18.7,0c-0.2,3.4-0.3,6.3-0.5,9.5c-2-0.1-3.5-0.2-4.8-0.3c0-8.4,0-16.4,0-24.5
	c1.8,0.1,3.2,0.1,4.6,0.2c1.1,7.2,1.1,7.2,4.3,6.8c0-3.5,0-6.9,0-10.6c-4.4,0-8.6,0-12.9,0c0,10.9,0,21.5,0,32c4.5,0,8.7,0,13.3,0
	c0-3.2,0-5.9,0-9.2c6.4,0,12.5,0,18.7,0c0-4.8,0-9,0-13.7c-3.2,0-6.2,0-9.3,0c0.1-2.1,0.3-3.7,0.4-5.6c3.2,0,6,0,8.9,0
	c0-4.6,0-8.8,0-13.6c-12.9,0-25.4,0-38.1,0C124.7,246,124.7,243.8,124.7,240.7 M413.7,348.8c0,7.3,0,14.6,0,22c4.5,0,8.7,0,13.2,0
	c0.1-3.1,0.3-6,0.4-8.9c5.3,0,10,0,14.8,0c0,1.9,0,3.4,0,4.6c-2.5,1.7-7.4-1.5-7.6,4.3c4.4,0,7.9,0,11.6,0c0-4.4,0-8.5,0-12.9
	c-7.7,0-15.1,0-22.7,0c-0.2,3.1-0.3,6-0.5,8.9c-2,0-3.5,0-5.2,0c0-5,0-9.8,0-15c3.1,0,6,0,9.5,0c0-3.4,0-6.3,0-9.5
	c3.4,0,6.2,0,9.4,0c0-3.3,0-6.2,0-9.6c3.3,0,6.3,0,9.3,0c0-4.7,0-8.9,0-13.6c-3.2,0-6.1,0-9.5,0c0-3.3,0-6.3,0-9.1
	c-4.7,0-8.9,0-13.5,0c0,3.1,0,5.9,0,8.7c-2.1,0-3.7,0-5.4,0c-0.1-2.5-0.2-4.6-0.3-6.7c-4.2,0-5,3.2-3.1,10.8c4.1,0,8.2,0,12.5,0
	c0.2-3.1,0.3-6,0.5-9.3c2,0.1,3.5,0.2,5.4,0.2c0,3.2,0,6,0,9.3c3.4,0,6.4,0,9.8,0c-0.1,2.2-0.2,3.8-0.4,5.8c-3.3,0-6.2,0-9.6,0
	c0,3.3,0,6.3,0,9.7c-3.4,0-6.3,0-9.5,0c0,3.3,0,6.1,0,9.4C420,348.1,417.2,348.1,413.7,348.8 M169.1,368c7.4,0,14.9,0,22.4,0
	c0-4.2,0-7.7,0-11.7c-6.2,0.2-2,5.7-4.2,7.5c-14.5,0-28.9,0-43.6,0c0.2-1.9,0.3-3.5,0.5-5.5c3.4,0,6.3,0,9.6,0c0-9.8,0-19.1,0-28.6
	c2,0.2,3.6,0.3,5.7,0.4c0,9.7,0,18.9,0,28c7.9,0,15.3,0,23.1,0c0-3.2,0-5.9,0-8.6c7.2-0.9,7.2-0.9,6.6-4.2c-3.4,0-6.9,0-10.8,0
	c0,3.1,0,6,0,8.9c-5.3,0-10,0-15.3,0c0-9.6,0-18.8,0-28.1c-4.7,0-9,0-13.5,0c0,9.6,0,18.9,0,28.7c-3.3,0-6.2,0-9.2,0
	c0,4.7,0,8.9,0,13.4C149.8,368,159,368,169.1,368 M461.6,354.4c-0.7,7.1-6.9,0.8-9.3,4.3c-1.3,9.3-0.8,10.6,3.4,9.7
	c0.1-2.1,0.2-4.2,0.4-6.6c3.2-0.2,6.1-0.3,9.5-0.5c0-9.5,0-18.8,0-28.5c6.5,0,12.6,0,18.9,0c0.2-3.5,0.3-6.6,0.4-9.8
	c2,0.1,3.6,0.2,5.7,0.3c0,3.3,0,6.2,0,9.3c4.5,0,8.6,0,13.3,0c0-12.8,0-25.3,0-38c2.2,0,3.8,0,5.9,0c0,9,0,17.7,0,26.5
	c0.4,0.2,0.8,0.4,1.3,0.7c0.9-1,2.4-1.9,2.4-2.9c0.2-9.3,0.1-18.6,0.1-28c-4.7,0-9.1,0-13.9,0c0,12.9,0,25.3,0,38
	c-2-0.1-3.6-0.2-5.6-0.3c0-3.4,0-6.3,0-9.1c-4.7,0-9,0-13.6,0c0,3.3,0,6.2,0,9.6c-6.5,0-12.6,0-18.9,0
	C461.6,337.5,461.6,345.5,461.6,354.4 M394.5,335.4c0,2.1,0,4.3,0,6.7c3.2,0.2,6.1,0.4,9.2,0.5c0,8.3,0,16.2,0,24.2
	c-1.8,0-3.4,0-5.3,0c0-3.1,0-5.9,0-8.8c-4.7,0-9.1,0-13.8,0c0,3.2,0,5.9,0,8.9c-5.1,0-9.8,0-15.1,0c0-3.1,0-6,0-9.1
	c-10.4,0-20.4,0-30.4,0c-1.3,3.1,0.1,3.8,2.9,3.8c7.7-0.1,15.5,0,23.7,0c0,3.5,0,6.4,0,9.2c7.9,0,15.3,0,23.1,0c0-3.2,0-6.1,0-9.3
	c2.1,0.2,3.6,0.3,5.6,0.4c0,3.1,0,5.9,0,8.9c4.6,0,8.8,0,13.1,0c0-10.8,0-21.4,0-32.2c-3-0.1-5.8-0.3-8.9-0.4c0-1.8,0-3.3,0-5.4
	c2.6,0,5.1,0,7.5,0c2.4,0,4.9,0,7.5,0c0,2.8,0,4.9,0,7.1c4.2,0.1,5-2.7,3.2-10.7c-7.4,0-14.8,0-22.5,0
	C394.5,331.2,394.5,332.8,394.5,335.4 M141.2,156.9c5.9,0,11.9,0,18.1,0c-0.1,2.1-0.2,3.5-0.3,5.6c-5,0-9.8-0.1-14.6,0.1
	c-0.9,0-1.7,1.4-2.5,2.1c0.8,0.6,1.6,1.6,2.5,1.6c6.1,0.1,12.2,0.1,18.4,0.1c0-4.8,0-9,0-13.1c-10.9,0-21.5,0-31.9,0
	c0,7.7,0,15.1,0,22.9c9.6,0,18.9,0,28.7,0c0,9.8,0,19.2,0,28.9c3.3,0,6.1,0,8.9,0c0,2,0,3.5,0,5.1c-6.9,0.6-6.9,0.6-6.9,4
	c3.6,0,7.2,0,10.8,0c0-4.5,0-8.7,0-13.4c-3.2,0-6.1,0-9.4,0c0-9.8,0-19,0-28.7c-9.7,0-18.9,0-28.4,0c0-5.2,0-9.9,0-15.1
	C136.6,156.9,138.4,156.9,141.2,156.9 M239.8,196.9c1.6-0.8,3.3-1.5,5.5-2.6c0.2,4.2,0.3,7.3,0.5,10.2c7.9,0,15.3,0,22.5,0
	c0-4.6,0-8.9,0-13.6c-3.2,0-6.1,0-9.3,0c0.1-2,0.2-3.4,0.3-5.1c3.2-0.2,6.1-0.3,9-0.4c0-4.6,0-8.9,0-13c-14.1,0-27.8,0-41.5,0
	c0,4.5,0,8.7,0,13.3c6.2,0,12,0.1,17.8-0.1c1.2,0,2.3-1.6,3.4-2.4c-0.3-0.5-0.6-1-0.8-1.5c-5.4,0-10.9,0-16.5,0c0-2,0-3.6,0-5.3
	c11.4,0,22.6,0,34.1,0c-0.1,1.9-0.2,3.5-0.3,5.6c-3.3,0-6.2,0-9,0c0,4.6,0,8.8,0,13c3.2,0.1,6.1,0.3,9,0.4c0,2,0,3.6,0,5.3
	c-5,0-9.7,0-15.1,0c0-3.3,0-6.3,0-9.2c-4.7,0-8.8,0-12.9,0c-1.6,9.5-1,11.3,3.4,10.8C239.8,200.7,239.8,199.2,239.8,196.9
	 M359.3,252c-2.5-0.3-3.6,0.6-3.5,3.3c0.2,5.1,0.1,10.2,0.1,15.5c-2,0-3.6,0-5.5,0c0-3.1,0-5.8,0-9.3c-6.5,0-12.7,0-19.3,0
	c0-8.2,0-15.7,0-23.1c0-2.5-0.2-4.5-3.5-3.2c0,10.1,0,20.1,0,30.5c6.4,0,12.3,0,18.8,0c0,3.2,0,6.1,0,9.1c4.8,0,9,0,13.6,0
	c0-6.4,0-12.5,0-19c3.4,0,6.3,0,9.3,0c0-4.5,0-8.6,0-13.1c-3.2-0.2-6.3-0.4-9.3-0.6c0-1.9,0-3.4,0-5c3.2-0.1,6.1-0.3,9.6-0.4
	c0-3.3,0-6.4,0-9.3c2.9-0.2,5.1-0.3,8.8-0.6c-4-5.9-8.7-2.5-12.9-3.9c0,3.8,0,6.7,0,10.1c-3.3,0-6.2,0-9.3,0c0,4.7,0,8.9,0,13.3
	c3.2,0.1,6.1,0.3,9.1,0.4c0,1.9,0,3.5,0,5.4C363.5,252,361.9,252,359.3,252 M230.1,261.7c0.2-2.8,0.3-5.6,0.5-8.9c1.7,0,3.4,0,5,0
	c9.2,0,18.3,0,27.5,0c3.5,0,3.5-0.1,3-3.7c-13.1,0-26.2,0-39.8,0c0,3.1,0,6,0,9c-2.1,0-3.7,0-5.7,0c0-3.2,0-6.1,0-9.4
	c-6.5,0-12.6,0-18.8,0c0-2,0-3.6,0-5.8c6.4,0,12.6,0,18.7,0c0-4.7,0-8.8,0-13.1c-3.1-0.1-6-0.3-8.8-0.4c-1.1-7.3-1.1-7.3-4.1-6.7
	c0,3.5,0,6.9,0,10.6c3.1,0.2,6,0.3,9.2,0.5c-0.1,2-0.2,3.5-0.2,5.5c-6.5,0-12.5,0-18.6,0c0,4.7,0,9,0,13.7c6.4,0,12.4,0,18.8,0
	c0,3.2,0,6,0,9.2C221.1,262.2,225.2,262.2,230.1,261.7 M465.7,212.6c0-1.4,0-2.9,0-4.8c3.3,0,6.2,0,9,0c0-4.7,0-8.9,0-13.5
	c-3.2,0-6,0-8.8,0c0-2,0-3.5,0-5.4c4.8,0,9.2,0.1,13.7,0c3-0.1,3-0.1,2.5-3.7c-6.7,0-13.5,0-20.2,0c0,4.5,0,8.7,0,13.4
	c3.1,0,5.9,0,8.9,0c0,2,0,3.5,0,5.3c-3.1,0.1-6,0.3-9,0.4c0,4.6,0,8.8,0,13.1c10.9,0,21.5,0,32.2,0c0-7.7,0-15.1,0-22.6
	c-4.6,0-8.8,0-13,0c-1,10.9-0.9,11.4,3.5,10.6c0.1-2.2,0.3-4.5,0.4-7c2,0.1,3.5,0.3,5.1,0.4c0,5.2,0,9.9,0,14.7
	C481.9,213.4,474,213.4,465.7,212.6 M471.2,249.7c0,14.8,0,29.5,0,44.4c8,0,15.4,0,22.9,0c0-7.7,0-15.1,0-22.6c-4.5,0-8.8,0-12.9,0
	c-1.3,10.3-0.9,11.3,3.4,10.8c0.1-2.3,0.3-4.5,0.4-6.9c1.9,0,3.5,0,5.2,0c0,5.1,0,9.9,0,14.7c-5.1,0-9.9,0-14.7,0
	c0-14.6,0-28.8,0-43.4c1.8,0,3.4,0,4.6,0c2.1,2.2-1.7,7.6,4.4,7.4c0-4.2,0-7.7,0-11.4c-4.4,0-8.5,0-13.1,0
	C471.2,244.9,471.2,246.8,471.2,249.7 M433,160c7.7-0.3,1.3-6.9,4.5-9.3c1.2,0,2.9,0,5,0c0,6.3,0,12.4,0,18.7c4.6,0,8.7,0,13.1,0
	c0.1-3.1,0.3-6.1,0.4-9c2,0,3.7,0,5.3,0c0,5.1,0,9.9,0,15.1c-3.2,0-6.1,0-9.4,0c0,6.4-0.1,12.4,0.1,18.3c0,1,1.8,2,2.8,2.9
	c0.4-0.3,0.9-0.7,1.3-1c0-5.4,0-10.8,0-16.7c3.3,0,6.3,0,9.1,0c0-7.8,0-15.2,0-22.5c-4.6,0-8.8,0-13.6,0c0,3.3,0,6.1,0,9.3
	c-2-0.1-3.4-0.2-5.4-0.4c0-6.4,0-12.5,0-18.6c-4.8,0-9,0-13.7,0c0,3.3,0,6.2,0,9.3c-2.1-0.1-3.6-0.2-5.4-0.3c0-1.9,0.3-3.4-0.1-4.8
	c-0.2-1-1.3-1.8-2-2.6c-0.6,0.8-1.7,1.6-1.7,2.4c-0.2,2.9-0.1,5.9-0.1,9.3C426.5,160,429.3,160,433,160 M317.9,197.9
	c6.1,0,12.2,0,18.8,0c0,6.9,0,13,0,19.4c3.4,0.2,6.3,0.3,9.8,0.5c0,3.1,0,6,0,9c4.8,0,9,0,13.5,0c0-3.1,0-5.9,0-8
	c2.1-2.9,8,1.6,7.6-4.9c-4,0-7.6,0-11.4,0c-0.2,3.1-0.3,6-0.5,9.2c-1.9-0.1-3.5-0.2-5.4-0.3c0-3.2,0-6,0-9.2c-3.3,0-6.2,0-9.6,0
	c0-6.5,0-12.7,0-19.3c-6.5,0-12.6,0-18.8,0c0-2.1,0-3.6,0-5.5c7.9,0,15.5-0.1,23.2,0c2.7,0,4.2-0.5,3-3.7c-10.1,0-20.2,0-30.4,0
	C317.6,189.4,317.6,193.2,317.9,197.9 M465.6,248.4c0-3.5-0.1-7,0-10.5c0.1-3-0.9-4-4.1-2.3c0,5.3,0,10.7,0,16.2c-2,0-3.6,0-5.8,0
	c0-6.4,0-12.6,0-18.5c-8,0-15.4,0-23.1,0c0,3.2,0,5.9,0,8.8c-1.9,0-3.5,0-5.2,0c-0.2-3.2-0.3-6.1-0.5-9.3c-3.2,0-6,0-9.4,0
	c0-3.4,0-6.4,0-9.4c-11.2-0.9-11.2-0.9-11.1,3.5c2.4,0.2,4.8,0.3,7.5,0.5c0,3.4,0,6.3,0,9.7c3.3,0,6.2,0,9.7,0c0,3.4,0,6.3,0,9.1
	c4.7,0,8.8,0,13.3,0c0-3.2,0-6.1,0-9c5.2,0,10,0,15.2,0c0,6.3,0,12.4,0,18.5c4.7,0,9,0,13.5,0C465.6,253.3,465.6,251.4,465.6,248.4
	 M414.4,246.3c0.5-1.1,0.9-2.2,1.5-3.6c-4.4,0-8,0-11.8,0c-0.2,3.2-0.3,6.1-0.5,9.3c-1.9-0.1-3.5-0.2-5.4-0.3c0-3.2,0-6,0-8.9
	c-4.7,0-9,0-13.3,0c0,7.7,0,15,0,22.5c10.9,0,21.7,0,32.3,0c1-10.9,0.9-11.3-3.6-10.7c-0.1,2.2-0.2,4.5-0.3,6.8
	c-8.3,0-16.3,0-24.5,0c0-5,0-9.7,0-14.6c1.8,0,3.5,0,5.6,0c0,3.2,0,5.9,0,8.9c4.6,0,8.8,0,13.6,0c0-3.2,0-6.1,0-9.3
	C410.3,246.4,411.9,246.4,414.4,246.3 M443.2,348c-1.8,0-3.7,0.1-5.5,0c-3.2-0.2-3.6,1.3-2.5,3.6c7.1,0,13.8,0,20.9,0
	c0-9.6,0-18.9,0-28.6c6.5,0,12.6,0,18.8,0c0.2-3.3,0.3-6.2,0.4-9.7c3.4,0,6.3,0,9.2,0c0-4,0-7.5,0-11.3c-6.5-0.4-2.2,5.3-4.7,7.4
	c-2.4,0.1-5.3,0.3-8.7,0.4c0,3.2,0,6.1,0,9.4c-6.6,0-12.7,0-19.1,0c0,9.7,0,19,0,28.7C449,348,446.6,348,443.2,348 M139.9,314.5
	c0,3.6,0,7.2,0,11.2c-3.4,0-6.2,0-9.2,0c0,4.6,0,8.8,0,13.6c3.1,0,6,0,8.4,0c2,2.6-1.5,7.5,4.4,7.7c0-4.2,0-7.9,0-12
	c-3.1,0-5.9,0-8.7,0c0-2,0-3.5,0-5.5c3.1,0,5.9,0,8.7,0c0-11.1,0-21.8,0-32.3c-4.5,0-8.6,0-12.8,0c0,7,0,13.8,0,20.5
	c0.4,0.3,0.9,0.5,1.3,0.8c0.8-1.1,2.2-2.3,2.3-3.5c0.3-4.6,0.1-9.2,0.1-14.1c2.2,0.1,3.7,0.2,5.5,0.3
	C139.9,305.6,139.9,309.5,139.9,314.5 M327.2,210.6c0.3,3-1.7,3-3.9,3c-5.1,0-10.2,0-15.1,0c0,4.9,0,9,0,13.3c7.1,0,13.8,0,20.6,0
	c0.3-0.4,0.5-0.9,0.8-1.3c-1.1-0.8-2.2-2.3-3.4-2.3c-4.6-0.3-9.2-0.1-14-0.1c0-2.1,0-3.6,0-5.7c6.4,0,12.5,0,18.6,0
	c0-4.8,0-9,0-13.4c-6.2,0-12-0.1-17.8,0.1c-1,0-2,1.3-3.1,2c1.1,0.6,2.2,1.7,3.3,1.8c3.7,0.2,7.3,0,11,0.2
	C325.2,208.1,326.2,209.1,327.2,210.6 M165.3,320c7.5,0.4,0.9,6.8,5.2,9.6c4.7,0,10.8,0,17.1,0c0,2.1,0,3.6,0,5.7
	c-6.3,0-12.4,0-18.4,0c-1.3,10.3-1,11.5,3.6,11c0-2.2,0-4.5,0-7.2c6.5,0,12.6,0,18.7,0c0-4.7,0-8.9,0-13.6c-6.4,0-12.4,0-19,0
	c0-3.4,0-6.3,0-9.5c-3.1,0-5.8-0.2-8.4,0.1c-1,0.1-2,1-3,1.6C162.2,318.4,163.3,319.2,165.3,320 M103.8,156.9c0.9-3,1.8-6.1,2.8-9.5
	c4.2,0,8.9,0,13.8,0c0,1.9,0,3.6,0,5.4c-2.6,0.2-4.8,0.3-8.4,0.5c3.8,6,8.6,2.6,12.3,3.7c0-4.9,0-9.2,0-13.6c-7.7,0-14.9,0-22.8,0
	c0,3.3,0,6.3,0,9.8c-3.5,0-6.4,0-9.8,0c0,3.3,0,6.2,0,9.3c-1.9,0-3.3-0.3-4.5,0.1c-1,0.3-1.8,1.2-2.7,1.9c0.9,0.7,1.7,1.8,2.7,1.9
	c2.8,0.3,5.6,0.1,8.5,0.1c0.2-3.4,0.3-6.3,0.5-9.5C98.6,156.9,100.7,156.9,103.8,156.9 M158.9,296.9c-2.9,0-5.9,0-9.1,0
	c0,7.1,0,13.9,0,20.7c2.9,1.1,3.9,0.1,3.8-2.9c-0.2-4.6,0-9.2,0-14c2.3,0.2,3.9,0.3,5.8,0.4c0,3.2,0,6,0,8.9c4.6,0,8.8,0,13.1,0
	c0-10.2,0-20.1,0-30c-3.5-1.1-3.8,0.8-3.7,3.3c0.1,7.6,0,15.2,0,23.1c-2.2-0.1-3.7-0.2-5.7-0.3c0-2.4-0.1-4.4,0-6.3
	C163.3,297.3,162.1,296.6,158.9,296.9 M361.1,338.4c-4.8,0-9.5,0-14.4,0c-0.2,3.6-0.3,6.5-0.4,9.6c-5.3,0-10.1-0.1-14.9,0.1
	c-0.8,0-1.5,1.2-2.2,1.8c0.7,0.7,1.4,1.9,2.1,1.9c6.3,0.2,12.5,0.1,19.3,0.1c0-3.5,0-6.4,0-9.8c6.6,0,12.7,0,19,0
	c0-6.3-0.1-12.1,0-17.9c0-3.1-1.2-3.7-4-2.6c0,4.7-0.2,9.2,0.1,13.6C365.9,338.3,364.3,338.6,361.1,338.4 M235.9,341.6
	c0,2.3,0,4.6,0,6.9c4.9,0,9.1,0,13.3,0c1.2-10.5,0.9-11.4-3.4-10.8c-0.1,2.3-0.3,4.5-0.4,6.9c-1.9,0-3.5,0-5.7,0c0-3.3,0-6.3,0-9.2
	c-4.7,0-8.8,0-12.9,0c0,7.7,0,15.2,0,22.8c3.7,0,7.2,0,10.6,0c0.3-3,0.3-3-6.7-4.4c0-4.7,0-9.5,0-15.4
	C232.8,339.3,234.3,340,235.9,341.6 M369.6,275.4c0-3,0.2-6-0.1-9c-0.1-1.1-1.7-2.1-2.7-3.1c-0.3,0.3-0.6,0.7-0.9,1
	c0,6.7,0,13.5,0,20.4c4.4,0,8.5,0,12.9,0c0.2-3.2,0.4-6.2,0.5-9.3c2,0,3.6,0,5.1,0c0.6,7.2,0.6,7.2,3.9,6.8c0-3.6,0-7.2,0-10.9
	c-4.4,0-8.5,0-12.9,0c-0.2,3.2-0.4,6.2-0.5,9.3c-2,0-3.6,0-5.4,0C369.6,279,369.6,277.6,369.6,275.4 M379.1,357.6c0-4.9,0-9.8,0-15
	c3.5-0.2,6.5-0.3,9.3-0.5c0-4.5,0-8.8,0-12.9c-3.9,0-7.5,0-11.3,0c0.1,6.2,5.2,2.2,7.4,4.3c0,1.3,0,2.9,0,4.7
	c-3.1,0.1-6,0.3-9.2,0.4c0,6.5-0.1,12.6,0.1,18.7C375.4,360.7,377,360.6,379.1,357.6 M157.4,233.6c0.7,1.6,1.4,3.2,2.5,5.5
	c-9,0-16.6,0-24.2,0c-3,0-3,0.1-2.6,3.7c9.9,0,19.8,0,30.1,0c0-2.4,0-4.5,0-6.7c0-2.1,0-4.2,0-6.4c-4.2,0-7.6,0-11.1,0
	C150.5,234.8,154.3,233.2,157.4,233.6 M417.6,149.8c-0.8-1.1-1.5-3.1-2.4-3.2c-3.6-0.4-7.2-0.2-11.3-0.2c0,3.5,0,6.3,0,9.6
	c-1.3,0-2.1,0-2.9,0c-0.8-0.1-1.6-0.2-2.3-0.3c-0.5-7.3-0.5-7.3-3.9-6.7c0,3.6,0,7.2,0,10.8c4.4,0,8.5,0,13.1,0c0-3.1,0-6,0-9.1
	c2.1,0,3.7,0,5.5,0c0.1,2.5,0.3,4.8,0.4,7c0.4,0.3,0.8,0.5,1.2,0.8c0.9-1.1,2.1-2.1,2.5-3.4C417.9,153.8,417.6,152.2,417.6,149.8
	 M434.2,188.9c3.9,0,7.9,0,11.9,0c0-4.9,0-9.1,0-13.8c-3.2,0-6.2,0-9.2,0c-0.2-2.7-0.3-4.9-0.5-8.3c-6.3,3.4-2.4,8.3-4,12.4
	c3.7,0,6.6,0,9.7,0c0,2.1,0,3.8,0,5.9c-5.8,0-11.2,0-16.7,0c-0.3,0.5-0.5,0.9-0.8,1.4c1,0.8,2,2.1,3.1,2.4
	C429.5,189.2,431.4,188.9,434.2,188.9 M499.9,275.4c0,3.1,0,6.2,0,9.2c5,0,9.1,0,13.1,0c1.5-9.4,1-11.2-3.3-11
	c-0.1,2.4-0.2,4.8-0.4,7.4c-2.1-0.2-3.7-0.3-5.5-0.4c0-4.7,0-9,0-13.3c0-4.3,0-8.6,0-12.9c-0.5-0.3-1-0.5-1.5-0.8
	c-0.8,1.1-2.3,2.2-2.4,3.4C499.7,262.8,499.9,268.6,499.9,275.4 M473.3,348.8c0.7,1.1,1.4,3,2.2,3.1c2.9,0.4,5.9,0.1,9.2,0.1
	c0-1.9,0-3.4,0-4.8c0-1.5,0-2.9,0-4.5c2,0,3.6,0,5.4,0c0.1,1.3,0.3,2.5,0.3,3.6c0.1,1.1,0,2.2,0,3.4c4.4,0.1,5.1-2.3,3.3-10.9
	c-4.2,0-8.4,0-13.1,0c0,3.2,0,6.1,0,9.2C478.1,348,476,348.1,473.3,348.8 M229.5,229.6c-1,0.7-2.8,1.3-2.9,2.1
	c-0.3,3.7-0.1,7.5-0.1,11.2c4.1,0,7.6,0,11.4,0c0.3-6.3-5.2-2.4-7.2-4.4c0-1.5,0-3,0-5c3.1,0,5.8,0,8.8,0c0-4,0-7.5,0-11.1
	c-3-0.1-3-0.1-4.3,7.2C233.7,229.6,232.1,229.6,229.5,229.6 M495.2,188.9c6.5,0,6.5,0,6.1-3.8c-2.2-0.1-4.4-0.3-7.1-0.4
	c0-3.4,0-6.3,0-9.5c-6.4,0-12.4-0.1-18.4,0.1c-1,0-2,1.8-3,2.7c0.3,0.4,0.7,0.9,1,1.3c5.4,0,10.8,0,16.7,0c0,2.3,0.2,4.3,0,6.2
	C490.1,188.6,491.7,189.2,495.2,188.9 M421.1,179.1c1.9,0,3.8,0,5.6,0c0-4.9,0-9.1,0-13.3c-3.8,0-7.3,0-11,0c-0.6,6.6,5.5,2,7.2,4.6
	c0,1.3,0,2.8,0,3.9c-2.3,2.2-7.7-2-7.2,4.5C417.3,179,418.7,179,421.1,179.1 M215.8,281.6c1.1-0.8,2.2-1.7,3.4-2.5
	c-0.3-0.4-0.5-0.8-0.8-1.2c-2.2-0.2-4.5-0.4-6.9-0.6c0-1.9,0-3.4,0-5.1c2.5-0.2,4.8-0.3,7-0.4c-0.1-4.1-2.9-4.8-10.8-3
	c0,4.2,0,8.4,0,12.9C210.3,281.6,212.6,281.6,215.8,281.6 M328.3,321.1c0.9-0.7,2.6-1.4,2.7-2.3c0.3-2.9,0.1-5.8,0.1-8.9
	c-4.7,0-9,0-13.2,0c0,3.9,0,7.4,0,11.2c6.7,0.4,1.8-5.6,4.9-7.5c1.1,0.1,2.6,0.2,4.2,0.3C327.2,316.4,327.3,318.5,328.3,321.1
	 M191.1,277.7c-2.1,1.8-2.3,3.5,0.9,3.8c3.1,0.3,6.2,0.1,9.6,0.1c0-6.6,0.1-12.6-0.1-18.5c0-1.1-1.6-2.1-2.5-3.2
	c-0.4,0.3-0.9,0.6-1.3,0.9c0,5.4,0,10.9,0,16.8C195.5,277.6,193.7,277.6,191.1,277.7 M266.8,210.4c-2.5,0-5-0.2-7.5,0.1
	c-0.8,0.1-1.5,1.2-2.3,1.9c0.7,0.7,1.4,1.7,2.2,1.9c1.6,0.3,3.3,0.1,5.1,0.1c0,2,0,3.8,0,5.7c-2.5,0-4.6,0-6.7,0
	c-0.3,4.3,1.4,4.8,11.4,3.2C268.6,219.1,268.2,214.8,266.8,210.4 M354.5,194.4c-2.6,0-5.2,0-7.8,0c0,4.8,0,9.1,0,13.2
	c11,1,11.3,0.9,10.3-3.8c-2,0-4.2,0-6.5,0c0-1.8,0-3.4,0-5.2c2.5-0.2,4.7-0.4,6.9-0.5c0.3-0.4,0.5-0.8,0.8-1.2
	C357.4,196.1,356.4,195.2,354.5,194.4 M124.6,288.2c0-6.6,0-13.2,0-19.7c-10.4-1.3-11.4-1-10.8,3.3c2.2,0.1,4.5,0.3,6.9,0.4
	c0,4.8,0.1,9.3,0,13.7C120.6,288.7,121.5,289.7,124.6,288.2 M350.4,236.9c-1-0.8-1.9-1.6-2.9-2.4c-0.4,0.3-0.8,0.5-1.2,0.8
	c0,5.6,0,11.1,0,16.6c-7.6,0.5-7.6,0.5-6.9,3.8c3.6,0,7.2,0,11,0C350.4,249.4,350.4,243.6,350.4,236.9 M402.9,284.9
	c1.1-0.8,2.2-1.7,3.4-2.5c-0.3-0.4-0.5-0.8-0.8-1.2c-2.2-0.1-4.5-0.3-6.9-0.5c0-1.9,0-3.5,0-5.3c2.4-0.2,4.7-0.3,6.9-0.5
	c-0.1-4.1-3.3-5-10.7-3c0,4.3,0,8.5,0,13C397.4,284.9,399.7,284.9,402.9,284.9 M115.4,262.4c2.3,0,4.6,0,7.1,0
	c0.6-6.7-5.5-2.2-7-4.6c-1.8-1.8,2-7-4.3-6.8c0,3.1-0.3,5.9,0.2,8.7C111.6,260.6,113.5,261.4,115.4,262.4 M478.7,165.6
	c-3.4,0.5-3.9-1.5-3.6-4.2c0.3-2.7-0.4-4.3-3.6-3.1c0,3.6,0,7.1,0,11.2c3,0,5.8,0.2,8.6-0.1c0.9-0.1,1.8-1.2,2.7-1.9
	C481.7,166.9,480.7,166.3,478.7,165.6 M484.7,265.6c3.1,0,6.2,0,9.2,0c1.5-10.5,1.1-11.6-3.3-11c-0.2,2.2-0.3,4.5-0.5,6.8
	c-2.7,0.2-4.9,0.4-8,0.6C482.8,263.5,483.3,264.5,484.7,265.6 M396,310c-2.4-0.3-4.7-0.5-7.2-0.8c-0.1-2.6-0.3-4.8-0.4-7.1
	c-4.2,0.2-4.9,2.9-3.1,11.4c2.8,0,5.8,0.2,8.7-0.1C395,313.4,395.7,311.7,396,310 M121.2,195.1c3.6,0,7.2,0,10.8,0
	c0.3-0.5,0.6-1,0.8-1.5c-1.1-0.9-2.2-2.4-3.3-2.4c-4.4-0.3-8.9-0.1-13.4-0.1c-3.1-0.1-3.7,1.3-2.5,4
	C116,195.1,118.1,195.1,121.2,195.1 M503.9,208.4c0-3.9,0-7.9,0-11.8c-0.5-0.3-1-0.5-1.5-0.8c-0.8,1-2.3,2-2.4,3.1
	c-0.3,3.4-0.4,7,0,10.4c0.2,2.2-2,5.6,2.2,6.2C502.5,215.5,503.3,211.5,503.9,208.4 M337.5,167.8c-0.4,2.3-0.9,4.7-1.3,7
	c-2.1,1.5-7.2-1.8-7.2,3.9c4.4,0,7.9,0,11.6,0c0-3.2,0.2-6-0.1-8.8C340.5,169.1,339.1,168.4,337.5,167.8 M394.6,226
	c0,3.5,0,7.1,0,10.6c11,0.9,11,0.9,10.9-3.5c-2.2-0.1-4.5-0.3-5.9-0.4C396.5,230.6,401.7,224.9,394.6,226 M283.9,204.4
	c0,7.6,0,7.6,3.7,7.5c0-6.2,0-12.4,0-18.6c-0.5-0.2-0.9-0.5-1.4-0.7c-0.8,1.1-2,2.2-2.2,3.4C283.6,198.4,283.9,201,283.9,204.4
	 M94.9,172.1c-2.5,0-5,0-7.5-0.1c-3.2-0.2-3.7,1.2-2.4,3.8c2.3,0.1,4.4,0.2,6.5,0.3c0.8,7.2,0.8,7.2,4.2,6.9
	C95.6,179.7,95.6,176.2,94.9,172.1 M340.6,226c-2.6-1.9-3.8-1.1-3.8,2c0,4.5-0.2,9,0.1,13.4c0.1,1.1,1.7,2.2,2.5,3.2
	c0.4-0.3,0.9-0.6,1.3-0.9C340.7,238.2,340.7,232.6,340.6,226 M317.6,248.4c0,1.8,0,3.6,0,5.4c0.5,0.3,0.9,0.6,1.4,0.8
	c0.8-1,2.4-2,2.4-3.1c0.3-4.6,0.3-9.3,0-14c-0.1-1.1-1.7-2-2.7-3c-0.4,0.3-0.7,0.7-1.1,1C317.6,239.4,317.6,243.4,317.6,248.4
	 M432.7,285.8c0,4.5-0.2,9,0.1,13.5c0.1,1.1,1.7,2.1,2.6,3.2c0.4-0.3,0.8-0.6,1.3-0.9c0-5.3,0-10.6,0-15.9c0-0.8-0.1-1.6-0.3-3.8
	C434.7,283.2,433.7,284,432.7,285.8 M211,302.5c0-1.8,0-3.5,0-5.3c-4.2,0-7.7,0-11.4,0c-0.4,6.7,5.6,1.8,7.7,5
	c0,0.9-0.2,2.5,0.1,3.9c0.2,0.8,1.2,1.5,1.8,2.2c0.6-0.8,1.4-1.4,1.8-2.3C211.3,305.3,211,304.3,211,302.5 M211,323.6
	c0-1.8,0-3.5,0-5.3c-0.5-0.3-1-0.5-1.4-0.8c-0.8,0.9-2.1,1.9-2.2,2.8c-0.2,4.8-0.2,9.6,0,14.4c0,0.8,1.1,1.6,1.7,2.3
	c0.6-0.9,1.8-1.7,1.9-2.6C211.1,331.2,211,327.9,211,323.6 M239.9,148.6c-0.9-1.2-1.7-2.3-2.6-3.5c-0.5,2.4-1.2,4.8-1.3,7.2
	c0,1,1.6,1.9,2.5,2.9c0.5-0.3,0.9-0.6,1.4-0.9C239.9,152.8,239.9,151.2,239.9,148.6 M218.3,356.3c-0.5,3-1,6-1.3,9
	c0,0.2,2.1,0.6,4.6,1.3C220.6,362.4,219.9,359.3,218.3,356.3 M394.7,348c-2.6,0-5.2,0-8,0c0,6.5,4.6,3.4,6.9,3.8
	C396.7,352.4,397.4,350.7,394.7,348 M363.1,348c-0.7,0-1.4-0.2-1.9,0c-1.2,0.6-2.3,1.4-3.4,2.2c1.1,0.6,2.2,1.5,3.4,1.7
	c2,0.3,4.1,0.1,6.2,0.1c0.2-0.6,0.4-1.3,0.7-1.9C366.7,349.4,365.4,348.7,363.1,348 M293.6,150.5c0.1,1.4,0.2,2.8,0.3,4.5
	c6.1-0.3,3-4.7,3.6-7.2c0.2-0.8-1.7-2-2.6-3c-0.4,0.3-0.8,0.6-1.2,1C293.6,147,293.6,148.3,293.6,150.5 M209.2,366.4
	c-1.6-4.9-5.5-1.4-8.2-2.2c-0.2-0.1-1,2.1-1.9,4.2C203.3,367.9,206.1,367.6,209.2,366.4 M152.5,287.2c-0.3,1.2-0.6,2.4-1,3.6
	c3.7,0,6.6,0,9.5,0c0.2-0.4,0.5-0.7,0.7-1.1c-1-0.8-1.8-2.2-2.9-2.4C157.1,286.8,155.2,287.1,152.5,287.2 M230.4,324.2
	c0-6.4,0-6.4-4-5.4c0,2.1-0.1,4.2,0.1,6.3c0.1,0.9,0.9,1.7,1.4,2.6C228.8,326.9,229.6,326,230.4,324.2 M226.5,194.9
	c0,2.6,0,5.2,0,8.2c6.3-0.5,3.5-4.9,3.8-7.4C230.7,192.6,228.8,192.5,226.5,194.9 M197.6,310c0,2.6,0,5.2,0,8.1
	c6.5-0.2,3.5-4.9,3.8-7.4C201.8,307.6,199.8,307.7,197.6,310 M490.5,302.8c0,2.9,0,5.8,0,8.7c0.6,0.2,1.2,0.5,1.8,0.7
	c0.7-1.3,2.2-2.8,2-4C494,305.9,496.8,301.5,490.5,302.8 M168.7,247.3c-0.1,2.7,0.3,4.7,3.8,2.9c0-2.9,0-5.8,0-8.8
	C167.2,240.4,169.2,244.3,168.7,247.3 M150.1,183.9c-0.2,3-0.4,6.1-0.6,9.1c0.5,0.2,1,0.5,1.5,0.7c0.9-1,2.6-2.2,2.4-2.8
	C152.6,188.5,156.2,184.6,150.1,183.9 M120.8,299.8c-0.2,8.1-0.2,8.1,3.9,8.1c0-2.3,0.3-4.7-0.2-6.9
	C124.3,300.2,122.5,299.7,120.8,299.8 M139,147.1c0.9-0.9,1.8-1.8,2.7-2.7c-2.6-0.4-5.2-1-7.8-1.1c-0.6,0-1.2,2.1-2,3.8
	C134.8,147.1,136.4,147.1,139,147.1 M93.9,145.6c-1.3-4.8-5.1-1.6-7.7-2.3c-0.4-0.1-1.4,2-2.8,4.1C87.9,147,90.8,146.8,93.9,145.6
	 M228.6,364.6c0.9,7.1,6.1,1.4,9.2,2.7c-0.5-1.6-1.3-3-2.4-3.2C233.4,363.8,231.4,364.1,228.6,364.6 M210.1,212.2
	c0.3-2.5,0.6-5,0.8-7.6c0-0.5-0.7-1.3-1.3-1.6c-0.4-0.2-1.3,0-1.8,0.3C206.5,204.4,207.5,210.7,210.1,212.2z"/>
<path class="st1" d="M130.1,205.5c-1.7-0.5-3.2-0.6-5.2-0.7c0,3.1,0,6,0,9.3c-4.7,0-8.9,0-13.5,0c-0.2-2.9-0.3-5.8-0.5-9.2
	c-6.3,0-12.4,0-18.8,0c0-4.7,0-8.9,0-13.6c3.2,0,6.1,0,9.4,0c0-9.7,0-19,0-28.5c7.8,0,15.2,0,22.9,0c0,4.3,0,8.4,0,13.1
	c-2.8,0-5.7,0-9.1,0c-0.1,2-0.2,3.6-0.3,5.7c9.6,0,18.8,0,28.5,0c0,6.6,0,12.7,0,19.2c3.4,0,6.3,0,9.6,0c0,6.5,0,12.6,0,19.1
	c6.5,0,12.6,0,19.1,0c0.2,3.5,0.3,6.5,0.5,9.7c3.2,0.1,6.1,0.3,9.3,0.4c0,10.8,0,21.2,0,32.3c-3,0.1-6.1,0.3-9.3,0.4
	c0,1.8,0,3.4,0,5.4c3.1,0,6,0,9.3,0c0,16,0,31.6,0,47.7c1.9,0.1,3.4,0.2,5.6,0.3c0-9.7,0-19.1,0-28.7c11.2,0,21.7,0,32.7,0
	c0,3,0,6,0,9.3c3.3,0,6.2,0,9.5,0c0,4.7,0,8.9,0,13.4c-3,0.1-6,0.3-9.4,0.4c0,12.7,0,25.3,0,38.3c-3.4,0-6.3,0-9.6,0
	c0,3.3,0,6.1,0,9.1c-4.6,0-8.8,0-13.3,0c0-10,0-20,0-30c2.9-1.1,3.9-0.1,3.8,2.9c-0.1,7.6,0,15.3,0,23.2c1.9,0,3.5,0,5.5,0
	c0-3,0-5.8,0-9c3.3,0,6.2,0,9.6,0c0-13.1,0-25.6,0-38.4c3.5-0.2,6.4-0.3,9.6-0.5c0.1-1.7,0.1-3.1,0.2-5c-3.1,0-6.1,0-9.6,0
	c0-3.5,0-6.5,0-9.8c-8.6,0-16.5,0-24.8,0c0,9.4,0,18.7,0,28.3c-4.6,0-8.8,0-13.6,0c0-15.8,0-31.5,0-47.7c-3.4,0-6.3,0-9.5,0
	c0-4.5,0-8.6,0-13.3c2.9,0,5.8,0,9.1,0c0-8.6,0-16.6,0-24.9c-3.1-0.1-6-0.3-9.2-0.4c0-3.1,0-5.9,0-9.1c-6.3,0-12.4,0-19,0
	c0-6.5,0-12.6,0-19.1c-3.3,0-6.2,0-9.8,0c0-6.7,0-12.9,0-19.4c-9.8,0-18.9,0-28.4,0c0-4.6,0-8.8,0-13.5c2.8,0,5.7,0,8.8,0
	c0-2.1,0-3.6,0-5.5c-4.9,0-9.6,0-14.8,0c0,9.3,0,18.6,0,28.3c-3.3,0-6.2,0-9.5,0c-0.1,2-0.3,3.6-0.4,5.8c6.5,0,12.7,0,19.1,0
	c0.2,3.4,0.3,6.2,0.4,9.4c1.7,0.1,3.2,0.2,5.3,0.3c0-3.2,0-6.2,0-9.3c4.8,0,9,0,13.7,0c0,6.3,0,12.4,0,18.8c3.2,0,6,0,9.1,0
	c0,4.6,0,8.8,0,13.4c-10.6,0-21.1,0-32,0c0-4.4,0-8.7,0-12.9c10.3-1.1,10.8-0.9,10.9,3.3c-2.2,0.1-4.5,0.3-7,0.5c0,1.7,0,3.3,0,5.1
	c8.1,0,15.8,0,24.2,0c0.1-1.5,0.1-3.2,0.2-5.3c-3.2,0-6,0-9.5,0C130.4,217.8,130.4,211.8,130.1,205.5z"/>
<path class="st2" d="M394.5,185.2c0-2.1,0-3.8,0-5.8c-1.9-0.1-3.5-0.3-5.6-0.4c0,6.4,0,12.7,0,19.4c-6.6,0-12.7,0-19,0
	c0,2,0,3.6,0,5.5c2.9,0,5.7,0,9,0c0.2,3.2,0.3,6.1,0.5,9.5c3.1,0.1,6,0.3,9.1,0.4c0,7.6,0,15,0,23c-3,0-5.9,0-9.3,0
	c0,8,0.1,15.4-0.1,22.8c0,1.4-1.3,2.7-2,4.1c-0.6-1.3-1.7-2.6-1.7-3.9c-0.2-8.8-0.1-17.6-0.1-26.7c3.2,0,5.9,0,9.1,0
	c0-5.2,0-10.1,0-15.3c-2.8,0-5.5,0-8.8,0c0-3.3,0-6.2,0-9.5c-3.4,0-6.3,0-9.6,0c0-4.7,0-8.9,0-13.7c6.1,0,12.1,0,18.7,0
	c0-6.6,0-12.6,0-19.1c4.7,0,8.9,0,13.5,0c0,9.3,0,18.6,0,28.5c12.9,0,25.5,0,38.5,0c0,3.5,0,6.4,0,9.5c5.1,0,9.7,0,14.9,0
	c0.1-1.6,0.2-3.3,0.3-5.4c-3.2,0-6,0-9.1,0c-0.2-3.2-0.3-6.1-0.5-9.5c-9.4,0-18.7,0-28.4,0c0-3.3,0-6.2,0-9.6c-3.4,0-6.3,0-9.7,0
	c0-6.5,0-12.6,0-19c-11.6,0-22.7,0-34.2,0c-0.1,1.4-0.2,3-0.3,4.9c3.2,0.2,6.1,0.3,9.3,0.5c0,4.4,0,8.7,0,13.3c-7.5,0-14.9,0-22.7,0
	c-0.1-3-0.3-6-0.4-9.2c-2.9,0-5.7,0-8.8,0c0-4.6,0-8.8,0-13.4c2.8-0.2,5.6-0.3,8.9-0.5c0-3,0-5.8,0-9.2c9.8,0,19.1,0,28.7,0
	c0-2.2,0-3.8,0-5.8c-5.6,0-11.1,0-16.5,0c-0.3-0.5-0.6-0.9-0.9-1.4c1-0.9,1.9-2.5,2.9-2.6c6.1-0.2,12.2-0.1,18.5-0.1
	c0,4.7,0,8.8,0,13.5c-9.5,0-18.9,0-28.6,0c0,3.3,0,6.1,0,9.5c-3.2,0-6.1,0-9.2,0c0,2.2,0,3.7,0,5.7c3,0,5.7,0,9,0c0,3.3,0,6.2,0,9.5
	c5.4,0,10.2,0,15.3,0c0-1.7,0-3.4,0-5.2c-3,0-5.8,0-9,0c0-4.5,0-8.8,0-13.3c13.7,0,27.6,0,41.9,0c0,6.3,0,12.4,0,18.9
	c3.4,0,6.3,0,9.5,0c0.1,3.3,0.3,6.3,0.4,9.6c9.6,0,18.8,0,28.4,0c0,3.2,0,6,0,9.3c3.2,0,6.1,0,9.3,0c0,4.8,0,9,0,13.5
	c-7.5,0-14.9,0-22.6,0c0-3.1,0-5.8,0-9.2c-12.8,0-25.4,0-38.4,0C394.5,200.2,394.5,193,394.5,185.2z"/>
<path class="st2" d="M293.6,175c0-3,0-5.5,0-8.4c-3.1,0-6.1,0-9.4,0c0-6.5,0-12.6,0-19.2c-2-0.1-3.6-0.2-5.6-0.3c0,6.4,0,12.5,0,19
	c-7.9,0-15.3,0-23,0c0-4.2,0-8.5,0-13c2.8,0,5.6,0,8.8,0c0-2,0-3.7,0-5.7c-4.7,0-9.5,0-14.6,0c0,6.3,0,12.4,0,18.9
	c-9.7,0-19,0-28.6,0c0,18.1,0,35.8,0,53.6c1.7,0,3.3,0,5.3,0c0-3.1,0-6,0-9.2c7.9,0,15.3,0,23.2,0c0,6.4,0,12.5,0,18.9
	c3.2,0,6,0,8.7,0c2,8.3,1.2,11.3-2.9,11.1c-0.1-2.1-0.3-4.3-0.5-6.9c-3,0-5.9,0-9.2,0c0-6.6,0-12.7,0-19.1c-5.2,0-9.9,0-15.2,0
	c0,2.9,0,5.8,0,9c-4.8,0-9,0-13.5,0c0-20.3,0-40.4,0-61c9.3,0,18.7,0,28.5,0c0-6.7,0-12.8,0-19.2c7.8,0,15.2,0,22.9,0
	c0,4.3,0,8.5,0,13.3c-2.9,0-5.8,0-9,0c0,2.1,0,3.6,0,5.4c5,0,9.8,0,15,0c0-6.3,0-12.4,0-18.7c4.6,0,8.6,0,13.2,0
	c0,6.1,0,12.2,0,18.8c3.4,0.2,6.3,0.3,9.6,0.4c0,7.6,0,14.9,0,22.7c-4.2,0-8.4,0-13.2,0c0-3,0-5.9,0-9c-2.1,0-3.6,0-5.5,0
	c0,19,0,37.8,0,57.1c-3.2,0.2-6.2,0.3-9.6,0.5c-0.1,1.5-0.2,3.1-0.2,4.4c2.2,2.6,7.8-1.8,7.8,4.6c-3.9,0-7.5,0-11.4,0
	c0-4.2,0-8.4,0-13c2.9-0.1,5.8-0.3,9.3-0.5c0-19.1,0-38,0-57.1c4.6,0,8.7,0,13.2,0c0.2,2.9,0.3,5.8,0.5,9.1c1.8,0.1,3.4,0.2,5.5,0.3
	C293.6,179.4,293.6,177.4,293.6,175z"/>
<path class="st2" d="M451.9,273.4c1.3-1.1,2.6-2,3.9-2.2c1.7-0.3,3.6-0.1,5.5-0.1c0-2,0-3.6,0-5.5c-12.7,0-25.1,0-37.8,0
	c0-4.6,0-8.9,0-13.5c6.3,0,12.4,0,18.8,0c0.1-2.7,0.2-4.9,0.4-7.2c4.3-0.3,4.4-0.1,3.5,10.9c-6.1,0-12.3,0-18.6,0c0,2.2,0,3.8,0,5.8
	c12.8,0,25.2,0,37.9,0c0,4.7,0,8.9,0,13.6c-3.2,0-6.1,0-9.2,0c0,2,0,3.6,0,5.6c3,0,6,0,9.2,0c0,11,0,21.6,0,32.5
	c-7.4,0-14.8,0-22.5,0c0-4.3,0-8.5,0-13.1c2.9,0,5.7,0,8.9,0c0.1-1.9,0.2-3.5,0.3-5.5c-3.2-0.2-6.1-0.4-9.4-0.6c0-6.2,0-12.3,0-18.7
	c-8.3,0-16.3,0-24.5,0c0,1.7,0,3.3,0,5.4c2.9,0,5.6,0,8.8,0c0,4.5,0,8.7,0,13.3c-3.6,0-7.2,0-11.1,0c-0.6-6.2,4.8-2.3,7.3-4.7
	c0-0.8,0.1-2.3,0.3-4.4c-3.3,0-6.2,0-9.4,0c0-4.7,0-9,0-13.5c10.7,0,21.2,0,32.3,0c0,6.1,0,12.2,0,18.7c3.4,0.2,6.2,0.4,9.4,0.6
	c0,4.3,0,8.4,0,13.1c-2.8,0-5.7,0-8.9,0c0,2.1,0,3.7,0,5.5c4.8,0,9.6,0,14.6,0c0-7.9,0-15.8,0-24.2c-2.8,0-5.7,0-9.4,0
	C451.9,281.1,451.9,277.5,451.9,273.4z"/>
<path class="st3" d="M240.6,296.9c1.8,0,3.1,0,4.7,0c0.1-1.9,0.2-3.5,0.3-5.7c-6.4,0-12.6,0-19,0c0-4.7,0-8.8,0-13.4
	c12.5,0,24.9,0,37.7,0c0-5.3,0-10.2,0-15.3c-1.5,0-3,0-5,0c-0.1,3-0.3,5.9-0.4,9.1c-4.4,0-8.7,0-13.3,0c0-3.1,0-6,0-9.1
	c-2,0-3.6,0-5.6,0c0,3,0,5.8,0,9c-3.9,0-7.5,0-11.4,0c-0.1-1-0.1-2-0.2-3.4c2.4-0.1,4.5-0.2,7.2-0.3c0-2.9,0-5.8,0-9.1
	c4.9,0,9.2,0,13.9,0c0,3,0,5.8,0,9c1.8,0.1,3.4,0.2,5.4,0.2c0.2-3.2,0.3-6.1,0.5-9.3c4.4,0,8.6,0,13,0c0,7.6,0,15,0,22.8
	c-12.6,0-25.1,0-37.8,0c0,2,0,3.6,0,5.4c6.2,0,12.1,0,18.5,0c0,4.7,0,9,0,13.7c-3,0.1-5.9,0.3-9.1,0.4c0,8.2,0,16.1,0,24.3
	c1.9,0,3.5,0,5.5,0c0-6.2,0-12.3,0-18.7c3.3-0.2,6.2-0.4,9.6-0.6c0-5.7,0-11.1,0-16.6c0.5-0.3,1.1-0.5,1.6-0.8
	c0.8,1.1,2.2,2.3,2.2,3.5c0.2,5.8,0.1,11.6,0.1,17.9c-3.1,0.2-6.1,0.3-9.4,0.5c0,6.2,0,12.3,0,18.7c-4.7,0-8.9,0-13.5,0
	c0-10.6,0-21,0-32C237.4,297.1,238.8,297,240.6,296.9z"/>
<path class="st4" d="M397.6,319.1c2.3,0,4.1,0,5.5,0c2.2-2.4-1.5-7.5,4.5-7.5c0,3.9,0,7.5,0,11.3c-10.8,0-21.4,0-32.1,0
	c-0.1-3-0.3-5.8-0.4-9.1c-3,0-5.9,0-9.3,0c0-3.5,0-6.4,0-9.5c-5.2,0-9.9,0-15.1,0c-0.1,2.9-0.3,5.8-0.4,9.2c-3.1,0-6,0-9.2,0
	c0,2.1,0,3.6,0,5.7c6.2,0,12.3,0,18.6,0c0,4.7,0,9,0,13.7c-6.2,0-12.3,0-18.8,0c0,3.4,0,6.3,0,9.4c-4.6,0-8.7,0-13.3,0
	c-0.2-3-0.3-5.9-0.5-9.2c-6.2,0-12.3,0-18.7,0c0-11,0-21.6,0-32.5c9.9,0,19.8,0,30,0c1,2.3,0.7,3.6-2.6,3.6c-7.8-0.1-15.6,0-23.6,0
	c0,8.3,0,16.3,0,24.7c6.1,0,12.1,0,18.8,0c0.2,3.3,0.3,6.2,0.4,9.5c1.7,0.1,3.3,0.2,5.2,0.2c0-3.1,0-5.9,0-9.3c6.5,0,12.7,0,19.2,0
	c0-2.2,0-3.8,0-5.9c-6.2,0-12.3,0-18.7,0c0-4.5,0-8.6,0-13.3c2.9-0.2,6-0.3,9.3-0.5c0-3.1,0-5.9,0-9c7.7,0,15.1,0,23.1,0
	c0,2.8,0,5.8,0,9c3.4,0.2,6.3,0.3,9.6,0.4c0,3,0,5.8,0,9.3C385.2,319.1,391.2,319.1,397.6,319.1z"/>
<path class="st4" d="M124.7,241.2c0,2.6,0,4.8,0,7.5c12.7,0,25.3,0,38.1,0c0,4.7,0,9,0,13.6c-3,0-5.8,0-8.9,0
	c-0.1,1.9-0.2,3.5-0.4,5.6c3.1,0,6,0,9.3,0c0,4.7,0,8.9,0,13.7c-6.2,0-12.3,0-18.7,0c0,3.3,0,6.1,0,9.2c-4.6,0-8.8,0-13.3,0
	c0-10.5,0-21.1,0-32c4.2,0,8.5,0,12.9,0c0,3.7,0,7.1,0,10.6c-3.2,0.5-3.2,0.5-4.3-6.8c-1.3-0.1-2.8-0.1-4.6-0.2c0,8.1,0,16.1,0,24.5
	c1.3,0.1,2.9,0.2,4.8,0.3c0.2-3.2,0.3-6.1,0.5-9.5c6.2,0,12.3,0,18.7,0c0-2.1,0-3.6,0-5.5c-2.9,0-5.7,0-8.9,0c0-4.5,0-8.7,0-13.6
	c2.7,0,5.6,0,8.9,0c0.1-2.1,0.2-3.6,0.3-5.6c-12.8,0-25.3,0-38.3,0c0-3.4,0-6.4,0-9.7c-6.6,0-12.5,0-18.9,0c0-10.3,0-20.4,0-30.4
	c3.4-0.3,3.5-0.3,3.6,2.7c0.1,7.6,0,15.3,0,23.5c5.2,0,10.1-0.1,15.1,0.1C122,239.2,123.3,240.2,124.7,241.2z"/>
<path class="st5" d="M414.1,348.5c3.1-0.3,5.9-0.3,9.1-0.3c0-3.3,0-6.1,0-9.4c3.2,0,6.1,0,9.5,0c0-3.4,0-6.4,0-9.7
	c3.4,0,6.3,0,9.6,0c0.1-2,0.2-3.6,0.4-5.8c-3.3,0-6.4,0-9.8,0c0-3.4,0-6.1,0-9.3c-1.9-0.1-3.4-0.2-5.4-0.2c-0.2,3.2-0.3,6.1-0.5,9.3
	c-4.3,0-8.4,0-12.5,0c-1.8-7.7-1.1-10.9,3.1-10.8c0.1,2.1,0.2,4.2,0.3,6.7c1.7,0,3.3,0,5.4,0c0-2.8,0-5.6,0-8.7c4.6,0,8.8,0,13.5,0
	c0,2.9,0,5.8,0,9.1c3.4,0,6.3,0,9.5,0c0,4.7,0,8.9,0,13.6c-3.1,0-6,0-9.3,0c0,3.4,0,6.3,0,9.6c-3.2,0-6,0-9.4,0c0,3.2,0,6.1,0,9.5
	c-3.5,0-6.4,0-9.5,0c0,5.2,0,10,0,15c1.6,0,3.2,0,5.2,0c0.1-2.9,0.3-5.8,0.5-8.9c7.7,0,15.1,0,22.7,0c0,4.3,0,8.4,0,12.9
	c-3.6,0-7.2,0-11.6,0c0.1-5.7,5.1-2.5,7.6-4.3c0-1.1,0-2.7,0-4.6c-4.8,0-9.5,0-14.8,0c-0.1,2.9-0.3,5.8-0.4,8.9c-4.4,0-8.6,0-13.2,0
	C413.7,363.4,413.7,356.1,414.1,348.5z"/>
<path class="st6" d="M168.6,368c-9.7,0-18.8,0-28.4,0c0-4.4,0-8.7,0-13.4c3,0,5.9,0,9.2,0c0-9.8,0-19,0-28.7c4.6,0,8.8,0,13.5,0
	c0,9.3,0,18.6,0,28.1c5.3,0,10,0,15.3,0c0-2.9,0-5.8,0-8.9c4,0,7.4,0,10.8,0c0.6,3.3,0.6,3.3-6.6,4.2c0,2.7,0,5.5,0,8.6
	c-7.8,0-15.2,0-23.1,0c0-9.1,0-18.3,0-28c-2-0.2-3.6-0.3-5.7-0.4c0,9.6,0,18.8,0,28.6c-3.3,0-6.2,0-9.6,0c-0.2,2-0.3,3.6-0.5,5.5
	c14.7,0,29.1,0,43.6,0c2.2-1.8-2-7.3,4.2-7.5c0,4,0,7.6,0,11.7C184,368,176.6,368,168.6,368z"/>
<path class="st2" d="M461.6,353.9c0-8.5,0-16.4,0-24.9c6.3,0,12.4,0,18.9,0c0-3.3,0-6.3,0-9.6c4.7,0,8.9,0,13.6,0c0,2.8,0,5.7,0,9.1
	c2,0.1,3.6,0.2,5.6,0.3c0-12.8,0-25.2,0-38c4.8,0,9.1,0,13.9,0c0,9.4,0.1,18.7-0.1,28c0,1-1.6,1.9-2.4,2.9c-0.4-0.2-0.8-0.4-1.3-0.7
	c0-8.7,0-17.5,0-26.5c-2.1,0-3.7,0-5.9,0c0,12.7,0,25.3,0,38c-4.7,0-8.8,0-13.3,0c0-3.1,0-6,0-9.3c-2-0.1-3.6-0.2-5.7-0.3
	c-0.1,3.2-0.3,6.3-0.4,9.8c-6.3,0-12.4,0-18.9,0c0,9.7,0,18.9,0,28.5c-3.4,0.2-6.3,0.3-9.5,0.5c-0.1,2.4-0.3,4.5-0.4,6.6
	c-4.3,0.8-4.7-0.5-3.4-9.7C454.7,355.2,460.9,361.5,461.6,353.9z"/>
<path class="st7" d="M394.5,335c0-2.1,0-3.8,0-5.7c7.6,0,15,0,22.5,0c1.8,8,1.1,10.8-3.2,10.7c0-2.1,0-4.2,0-7.1c-2.7,0-5.1,0-7.5,0
	c-2.5,0-4.9,0-7.5,0c0,2,0,3.6,0,5.4c3,0.1,5.8,0.3,8.9,0.4c0,10.8,0,21.4,0,32.2c-4.3,0-8.5,0-13.1,0c0-3,0-5.8,0-8.9
	c-1.9-0.1-3.5-0.3-5.6-0.4c0,3.2,0,6.1,0,9.3c-7.9,0-15.3,0-23.1,0c0-2.8,0-5.7,0-9.2c-8.2,0-16-0.1-23.7,0c-2.8,0-4.2-0.7-2.9-3.8
	c10,0,19.9,0,30.4,0c0,3.1,0,6,0,9.1c5.2,0,10,0,15.1,0c0-2.9,0-5.7,0-8.9c4.7,0,9.1,0,13.8,0c0,2.9,0,5.7,0,8.8c1.9,0,3.5,0,5.3,0
	c0-8,0-15.9,0-24.2c-3-0.2-5.9-0.3-9.2-0.5C394.5,339.7,394.5,337.6,394.5,335z"/>
<path class="st8" d="M140.7,156.9c-2.3,0-4.1,0-6.1,0c0,5.2,0,10,0,15.1c9.4,0,18.7,0,28.4,0c0,9.7,0,19,0,28.7c3.3,0,6.2,0,9.4,0
	c0,4.7,0,9,0,13.4c-3.6,0-7.2,0-10.8,0c0-3.4,0-3.4,6.9-4c0-1.6,0-3.2,0-5.1c-2.9,0-5.6,0-8.9,0c0-9.7,0-19.1,0-28.9
	c-9.8,0-19.1,0-28.7,0c0-7.8,0-15.2,0-22.9c10.5,0,21,0,31.9,0c0,4.2,0,8.4,0,13.1c-6.2,0-12.3,0.1-18.4-0.1c-0.8,0-1.6-1.1-2.5-1.6
	c0.8-0.7,1.6-2.1,2.5-2.1c4.8-0.2,9.6-0.1,14.6-0.1c0.1-2,0.2-3.5,0.3-5.6C153.1,156.9,147.1,156.9,140.7,156.9z"/>
<path class="st4" d="M239.8,197.3c0,1.9,0,3.4,0,4.9c-4.4,0.6-4.9-1.3-3.4-10.8c4,0,8.2,0,12.9,0c0,2.9,0,6,0,9.2
	c5.4,0,10.1,0,15.1,0c0-1.7,0-3.3,0-5.3c-2.9-0.1-5.8-0.3-9-0.4c0-4.3,0-8.4,0-13c2.8,0,5.7,0,9,0c0.1-2.1,0.2-3.7,0.3-5.6
	c-11.5,0-22.7,0-34.1,0c0,1.7,0,3.3,0,5.3c5.7,0,11.1,0,16.5,0c0.3,0.5,0.6,1,0.8,1.5c-1.1,0.8-2.2,2.3-3.4,2.4
	c-5.8,0.2-11.6,0.1-17.8,0.1c0-4.5,0-8.7,0-13.3c13.7,0,27.4,0,41.5,0c0,4.2,0,8.4,0,13c-2.8,0.1-5.8,0.3-9,0.4
	c-0.1,1.7-0.2,3.2-0.3,5.1c3.1,0,6.1,0,9.3,0c0,4.7,0,9,0,13.6c-7.3,0-14.7,0-22.5,0c-0.1-3-0.3-6-0.5-10.2
	C243.1,195.3,241.5,196.1,239.8,197.3z"/>
<path class="st1" d="M359.8,252c2.1,0,3.7,0,5.6,0c0-2,0-3.5,0-5.4c-3-0.1-5.9-0.3-9.1-0.4c0-4.4,0-8.6,0-13.3c3.1,0,6,0,9.3,0
	c0-3.4,0-6.3,0-10.1c4.2,1.4,8.9-2,12.9,3.9c-3.6,0.2-5.9,0.4-8.8,0.6c0,3,0,6,0,9.3c-3.5,0.2-6.4,0.3-9.6,0.4c0,1.7,0,3.1,0,5
	c3,0.2,6.1,0.4,9.3,0.6c0,4.4,0,8.5,0,13.1c-3,0-6,0-9.3,0c0,6.5,0,12.6,0,19c-4.6,0-8.9,0-13.6,0c0-2.9,0-5.8,0-9.1
	c-6.5,0-12.4,0-18.8,0c0-10.4,0-20.4,0-30.5c3.3-1.4,3.5,0.7,3.5,3.2c-0.1,7.5,0,14.9,0,23.1c6.6,0,12.8,0,19.3,0c0,3.5,0,6.3,0,9.3
	c1.9,0,3.5,0,5.5,0c0-5.3,0.1-10.4-0.1-15.5C355.8,252.6,356.8,251.7,359.8,252z"/>
<path class="st5" d="M229.7,262c-4.5,0.2-8.6,0.2-13,0.2c0-3.2,0-6,0-9.2c-6.4,0-12.4,0-18.8,0c0-4.7,0-8.9,0-13.7
	c6,0,12.1,0,18.6,0c0.1-2,0.2-3.6,0.2-5.5c-3.2-0.2-6.1-0.3-9.2-0.5c0-3.7,0-7.1,0-10.6c3-0.7,3-0.7,4.1,6.7
	c2.8,0.1,5.7,0.3,8.8,0.4c0,4.3,0,8.4,0,13.1c-6.1,0-12.3,0-18.7,0c0,2.2,0,3.8,0,5.8c6.2,0,12.3,0,18.8,0c0,3.3,0,6.2,0,9.4
	c2.1,0,3.6,0,5.7,0c0-3,0-5.9,0-9c13.6,0,26.7,0,39.8,0c0.5,3.6,0.5,3.7-3,3.7c-9.2,0-18.3,0-27.5,0c-1.6,0-3.2,0-5,0
	C230.4,256.2,230.3,258.9,229.7,262z"/>
<path class="st9" d="M466,213c8.1,0.4,15.9,0.4,24.1,0.4c0-4.8,0-9.6,0-14.7c-1.5-0.1-3.1-0.2-5.1-0.4c-0.2,2.5-0.3,4.8-0.4,7
	c-4.4,0.8-4.5,0.3-3.5-10.6c4.2,0,8.5,0,13,0c0,7.5,0,14.9,0,22.6c-10.7,0-21.3,0-32.2,0c0-4.3,0-8.5,0-13.1c2.9-0.1,5.9-0.3,9-0.4
	c0-1.8,0-3.3,0-5.3c-3.1,0-5.8,0-8.9,0c0-4.6,0-8.8,0-13.4c6.7,0,13.4,0,20.2,0c0.5,3.5,0.5,3.6-2.5,3.7c-4.5,0.1-8.9,0-13.7,0
	c0,1.9,0,3.4,0,5.4c2.8,0,5.6,0,8.8,0c0,4.6,0,8.8,0,13.5c-2.8,0-5.7,0-9,0C465.7,209.7,465.7,211.2,466,213z"/>
<path class="st4" d="M471.2,249.2c0-2.4,0-4.4,0-6.6c4.6,0,8.7,0,13.1,0c0,3.7,0,7.2,0,11.4c-6.1,0.2-2.3-5.2-4.4-7.4
	c-1.2,0-2.8,0-4.6,0c0,14.5,0,28.8,0,43.4c4.8,0,9.5,0,14.7,0c0-4.8,0-9.6,0-14.7c-1.7,0-3.3,0-5.2,0c-0.1,2.3-0.3,4.6-0.4,6.9
	c-4.3,0.6-4.6-0.5-3.4-10.8c4.2,0,8.4,0,12.9,0c0,7.5,0,14.9,0,22.6c-7.5,0-14.9,0-22.9,0C471.2,279.2,471.2,264.5,471.2,249.2z"/>
<path class="st3" d="M432.5,160c-3.3,0-6.1,0-9.3,0c0-3.4-0.1-6.4,0.1-9.3c0.1-0.8,1.1-1.6,1.7-2.4c0.7,0.9,1.8,1.7,2,2.6
	c0.3,1.4,0.1,3,0.1,4.8c1.8,0.1,3.4,0.2,5.4,0.3c0-3.2,0-6.1,0-9.3c4.7,0,8.9,0,13.7,0c0,6.1,0,12.2,0,18.6c2,0.1,3.4,0.2,5.4,0.4
	c0-3.1,0-6,0-9.3c4.8,0,9,0,13.6,0c0,7.3,0,14.7,0,22.5c-2.9,0-5.8,0-9.1,0c0,5.9,0,11.3,0,16.7c-0.4,0.3-0.9,0.7-1.3,1
	c-1-1-2.7-1.9-2.8-2.9c-0.3-6-0.1-11.9-0.1-18.3c3.3,0,6.2,0,9.4,0c0-5.2,0-10,0-15.1c-1.6,0-3.3,0-5.3,0c-0.1,3-0.3,5.9-0.4,9
	c-4.4,0-8.5,0-13.1,0c0-6.3,0-12.3,0-18.7c-2.1,0-3.7,0-5,0C434.3,153.1,440.7,159.7,432.5,160z"/>
<path class="st2" d="M317.8,197.5c-0.1-4.3-0.1-8.1-0.1-12.2c10.2,0,20.3,0,30.4,0c1.2,3.1-0.3,3.7-3,3.7c-7.6-0.1-15.3,0-23.2,0
	c0,1.9,0,3.5,0,5.5c6.2,0,12.3,0,18.8,0c0,6.6,0,12.7,0,19.3c3.3,0,6.3,0,9.6,0c0,3.2,0,6,0,9.2c1.9,0.1,3.5,0.2,5.4,0.3
	c0.2-3.2,0.3-6.1,0.5-9.2c3.8,0,7.5,0,11.4,0c0.4,6.5-5.4,2-7.6,4.9c0,2.1,0,4.9,0,8c-4.6,0-8.8,0-13.5,0c0-3,0-5.9,0-9
	c-3.4-0.2-6.4-0.3-9.8-0.5c0-6.4,0-12.5,0-19.4C330.1,197.9,324,197.9,317.8,197.5z"/>
<path class="st5" d="M465.6,248.9c0,2.5,0,4.4,0,6.7c-4.6,0-8.8,0-13.5,0c0-6.1,0-12.1,0-18.5c-5.3,0-10,0-15.2,0c0,2.9,0,5.8,0,9
	c-4.6,0-8.7,0-13.3,0c0-2.8,0-5.7,0-9.1c-3.4,0-6.3,0-9.7,0c0-3.4,0-6.3,0-9.7c-2.8-0.2-5.2-0.3-7.5-0.5c-0.1-4.4,0-4.4,11.1-3.5
	c0,3,0,6,0,9.4c3.4,0,6.2,0,9.4,0c0.2,3.2,0.3,6.1,0.5,9.3c1.8,0,3.3,0,5.2,0c0-2.8,0-5.6,0-8.8c7.7,0,15.1,0,23.1,0
	c0,5.9,0,12.1,0,18.5c2.2,0,3.8,0,5.8,0c0-5.5,0-10.9,0-16.2c3.2-1.7,4.2-0.7,4.1,2.3C465.5,241.4,465.6,244.9,465.6,248.9z"/>
<path class="st10" d="M414,246.4c-2.1,0-3.7,0-5.9,0c0,3.2,0,6.1,0,9.3c-4.8,0-9,0-13.6,0c0-2.9,0-5.7,0-8.9c-2.1,0-3.7,0-5.6,0
	c0,4.8,0,9.6,0,14.6c8.2,0,16.1,0,24.5,0c0.1-2.3,0.2-4.5,0.3-6.8c4.4-0.7,4.6-0.3,3.6,10.7c-10.7,0-21.4,0-32.3,0
	c0-7.5,0-14.7,0-22.5c4.3,0,8.6,0,13.3,0c0,2.9,0,5.7,0,8.9c1.9,0.1,3.4,0.2,5.4,0.3c0.2-3.2,0.3-6.1,0.5-9.3c3.8,0,7.3,0,11.8,0
	C415.3,244.1,414.9,245.2,414,246.4z"/>
<path class="st4" d="M443.7,348c2.9,0,5.4,0,8.2,0c0-9.7,0-19,0-28.7c6.5,0,12.5,0,19.1,0c0-3.4,0-6.2,0-9.4
	c3.4-0.2,6.3-0.3,8.7-0.4c2.6-2.1-1.8-7.8,4.7-7.4c0,3.8,0,7.3,0,11.3c-2.9,0-5.8,0-9.2,0c-0.2,3.4-0.3,6.3-0.4,9.7
	c-6.3,0-12.4,0-18.8,0c0,9.7,0,18.9,0,28.6c-7.1,0-13.8,0-20.9,0c-1-2.3-0.7-3.7,2.5-3.6C439.5,348.1,441.3,348,443.7,348z"/>
<path class="st2" d="M139.9,314c0-4.5,0-8.4,0-12.9c-1.8-0.1-3.3-0.2-5.5-0.3c0,4.9,0.2,9.5-0.1,14.1c-0.1,1.2-1.5,2.3-2.3,3.5
	c-0.4-0.3-0.9-0.5-1.3-0.8c0-6.7,0-13.5,0-20.5c4.2,0,8.3,0,12.8,0c0,10.6,0,21.3,0,32.3c-2.9,0-5.6,0-8.7,0c0,2,0,3.5,0,5.5
	c2.8,0,5.6,0,8.7,0c0,4.1,0,7.8,0,12c-5.8-0.2-2.4-5-4.4-7.7c-2.3,0-5.2,0-8.4,0c0-4.7,0-9,0-13.6c2.9,0,5.7,0,9.2,0
	C139.9,321.7,139.9,318.1,139.9,314z"/>
<path class="st9" d="M327.2,210.1c-1-1-2-2-3-2c-3.7-0.2-7.3,0.1-11-0.2c-1.1-0.1-2.2-1.2-3.3-1.8c1-0.7,2-2,3.1-2
	c5.8-0.2,11.6-0.1,17.8-0.1c0,4.4,0,8.7,0,13.4c-6.1,0-12.2,0-18.6,0c0,2.1,0,3.6,0,5.7c4.7,0,9.4-0.2,14,0.1
	c1.2,0.1,2.3,1.5,3.4,2.3c-0.3,0.4-0.5,0.9-0.8,1.3c-6.8,0-13.5,0-20.6,0c0-4.2,0-8.3,0-13.3c5,0,10.1,0,15.1,0
	C325.5,213.6,327.5,213.6,327.2,210.1z"/>
<path class="st2" d="M164.9,320c-1.5-0.8-2.7-1.5-3.8-2.3c1-0.5,2-1.5,3-1.6c2.6-0.2,5.3-0.1,8.4-0.1c0,3.2,0,6.1,0,9.5
	c6.5,0,12.6,0,19,0c0,4.7,0,8.9,0,13.6c-6.2,0-12.3,0-18.7,0c0,2.7,0,4.9,0,7.2c-4.6,0.5-4.9-0.7-3.6-11c6,0,12.1,0,18.4,0
	c0-2,0-3.6,0-5.7c-6.3,0-12.4,0-17.1,0C166.2,326.7,172.9,320.3,164.9,320z"/>
<path class="st4" d="M103.3,156.9c-2.6,0-4.8,0-7.3,0c-0.2,3.2-0.3,6.1-0.5,9.5c-2.9,0-5.7,0.2-8.5-0.1c-0.9-0.1-1.8-1.2-2.7-1.9
	c0.9-0.7,1.7-1.6,2.7-1.9c1.2-0.3,2.6-0.1,4.5-0.1c0-3.1,0-6,0-9.3c3.4,0,6.4,0,9.8,0c0-3.5,0-6.5,0-9.8c7.8,0,15.1,0,22.8,0
	c0,4.3,0,8.7,0,13.6c-3.8-1.1-8.5,2.3-12.3-3.7c3.6-0.2,5.9-0.4,8.4-0.5c0-1.8,0-3.5,0-5.4c-4.9,0-9.6,0-13.8,0
	C105.6,150.8,104.7,153.8,103.3,156.9z"/>
<path class="st11" d="M159.4,296.9c2.7-0.3,3.9,0.4,3.7,2.9c-0.2,2,0,3.9,0,6.3c1.9,0.1,3.5,0.2,5.7,0.3c0-7.9,0.1-15.5,0-23.1
	c0-2.5,0.2-4.4,3.7-3.3c0,9.8,0,19.7,0,30c-4.3,0-8.5,0-13.1,0c0-2.9,0-5.7,0-8.9c-1.9-0.1-3.5-0.2-5.8-0.4c0,4.8-0.1,9.4,0,14
	c0.1,2.9-0.9,3.9-3.8,2.9c0-6.8,0-13.6,0-20.7C153,296.9,156,296.9,159.4,296.9z"/>
<path class="st9" d="M361.6,338.4c2.7,0.2,4.3-0.1,4.1-3.1c-0.3-4.5-0.1-9-0.1-13.6c2.8-1.2,4.1-0.5,4,2.6c-0.1,5.8,0,11.6,0,17.9
	c-6.3,0-12.4,0-19,0c0,3.4,0,6.3,0,9.8c-6.8,0-13.1,0.1-19.3-0.1c-0.7,0-1.4-1.3-2.1-1.9c0.7-0.6,1.5-1.8,2.2-1.8
	c4.8-0.2,9.6-0.1,14.9-0.1c0.1-3.1,0.3-6.1,0.4-9.6C351.5,338.4,356.3,338.4,361.6,338.4z"/>
<path class="st3" d="M235.9,341.2c-1.6-1.2-3.1-1.8-5.2-2.8c0,5.9,0,10.6,0,15.4c6.9,1.4,6.9,1.4,6.7,4.4c-3.4,0-6.9,0-10.6,0
	c0-7.6,0-15,0-22.8c4.1,0,8.2,0,12.9,0c0,2.9,0,6,0,9.2c2.2,0,3.8,0,5.7,0c0.1-2.3,0.3-4.6,0.4-6.9c4.3-0.6,4.6,0.3,3.4,10.8
	c-4.2,0-8.4,0-13.3,0C235.9,346.2,235.9,343.9,235.9,341.2z"/>
<path class="st8" d="M369.6,275.9c0,1.8,0,3.1,0,4.7c1.8,0,3.4,0,5.4,0c0.2-3,0.3-6.1,0.5-9.3c4.4,0,8.5,0,12.9,0
	c0,3.7,0,7.3,0,10.9c-3.4,0.4-3.4,0.4-3.9-6.8c-1.5,0-3.1,0-5.1,0c-0.2,3.1-0.4,6.1-0.5,9.3c-4.4,0-8.5,0-12.9,0
	c0-6.9,0-13.6,0-20.4c0.3-0.3,0.6-0.7,0.9-1c0.9,1,2.5,2,2.7,3.1C369.8,269.4,369.6,272.4,369.6,275.9z"/>
<path class="st12" d="M379,358.1c-2,2.6-3.6,2.6-3.7-0.7c-0.2-6.1-0.1-12.2-0.1-18.7c3.3-0.2,6.1-0.3,9.2-0.4c0-1.8,0-3.4,0-4.7
	c-2.2-2.1-7.3,1.8-7.4-4.3c3.8,0,7.4,0,11.3,0c0,4.1,0,8.4,0,12.9c-2.8,0.2-5.8,0.3-9.3,0.5C379.1,347.8,379.1,352.7,379,358.1z"/>
<path class="st8" d="M156.9,233.6c-2.7-0.4-6.4,1.2-5-3.8c3.5,0,7,0,11.1,0c0,2.2,0,4.3,0,6.4c0,2.1,0,4.3,0,6.7
	c-10.3,0-20.2,0-30.1,0c-0.3-3.5-0.3-3.7,2.6-3.7c7.6-0.1,15.2,0,24.2,0C158.9,236.8,158.1,235.2,156.9,233.6z"/>
<path class="st13" d="M417.6,150.2c0,2,0.3,3.6-0.1,4.9c-0.4,1.3-1.6,2.2-2.5,3.4c-0.4-0.3-0.8-0.5-1.2-0.8c-0.1-2.3-0.2-4.6-0.4-7
	c-1.8,0-3.4,0-5.5,0c0,3.1,0,6,0,9.1c-4.6,0-8.7,0-13.1,0c0-3.6,0-7.2,0-10.8c3.3-0.6,3.3-0.6,3.9,6.7c0.7,0.1,1.5,0.3,2.3,0.3
	c0.8,0.1,1.6,0,2.9,0c0-3.3,0-6.2,0-9.6c4.1,0,7.7-0.2,11.3,0.2C416.1,146.7,416.8,148.6,417.6,150.2z"/>
<path class="st2" d="M433.7,188.9c-2.3,0-4.2,0.3-6-0.1c-1.2-0.3-2.1-1.5-3.1-2.4c0.3-0.5,0.5-0.9,0.8-1.4c5.4,0,10.9,0,16.7,0
	c0-2.1,0-3.8,0-5.9c-3.1,0-6,0-9.7,0c1.6-4.1-2.3-9,4-12.4c0.2,3.4,0.3,5.6,0.5,8.3c3,0,6,0,9.2,0c0,4.7,0,8.9,0,13.8
	C442.1,188.9,438.1,188.9,433.7,188.9z"/>
<path class="st13" d="M499.9,274.9c0-6.3-0.1-12.2,0.1-18c0-1.2,1.5-2.3,2.4-3.4c0.5,0.3,1,0.5,1.5,0.8c0,4.3,0,8.6,0,12.9
	c0,4.3,0,8.6,0,13.3c1.9,0.1,3.5,0.3,5.5,0.4c0.1-2.6,0.3-5,0.4-7.4c4.3-0.2,4.8,1.6,3.3,11c-4.1,0-8.2,0-13.1,0
	C499.9,281.6,499.9,278.5,499.9,274.9z"/>
<path class="st10" d="M473.6,348.5c2.4-0.4,4.5-0.5,7.1-0.6c0-3.1,0-6,0-9.2c4.7,0,8.9,0,13.1,0c1.7,8.6,1.1,11-3.3,10.9
	c0-1.1,0-2.2,0-3.4c-0.1-1.1-0.2-2.2-0.3-3.6c-1.8,0-3.4,0-5.4,0c0,1.6,0,3,0,4.5c0,1.4,0,2.9,0,4.8c-3.3,0-6.3,0.2-9.2-0.1
	C474.6,351.7,474,349.8,473.6,348.5z"/>
<path class="st2" d="M230,229.6c2.1,0,3.7,0,5.2,0c1.4-7.3,1.4-7.3,4.3-7.2c0,3.6,0,7.1,0,11.1c-3,0-5.8,0-8.8,0c0,2,0,3.5,0,5
	c1.9,2,7.4-1.8,7.2,4.4c-3.9,0-7.3,0-11.4,0c0-3.7-0.2-7.5,0.1-11.2C226.7,231,228.5,230.3,230,229.6z"/>
<path class="st2" d="M494.7,188.9c-3,0.3-4.7-0.3-4.3-3.4c0.2-1.9,0-3.9,0-6.2c-5.8,0-11.3,0-16.7,0c-0.3-0.4-0.7-0.9-1-1.3
	c1-0.9,2-2.7,3-2.7c5.9-0.3,11.9-0.1,18.4-0.1c0,3.2,0,6.1,0,9.5c2.7,0.2,4.9,0.3,7.1,0.4C501.7,188.9,501.7,188.9,494.7,188.9z"/>
<path class="st8" d="M420.6,179.1c-1.9-0.1-3.4-0.1-4.9-0.2c-0.5-6.6,4.9-2.3,7.2-4.5c0-1.1,0-2.6,0-3.9c-1.7-2.7-7.7,1.9-7.2-4.6
	c3.7,0,7.1,0,11,0c0,4.2,0,8.4,0,13.3C424.9,179.1,423,179.1,420.6,179.1z"/>
<path class="st2" d="M215.4,281.6c-2.7,0-5.1,0-7.8,0c0-4.4,0-8.7,0-12.9c7.9-1.8,10.8-1.1,10.8,3c-2.2,0.1-4.5,0.3-7,0.4
	c0,1.7,0,3.3,0,5.1c2.5,0.2,4.7,0.4,6.9,0.6c0.3,0.4,0.5,0.8,0.8,1.2C218,279.9,216.9,280.8,215.4,281.6z"/>
<path class="st11" d="M327.9,320.9c-0.5-2.4-0.7-4.5-0.9-7.1c-1.6-0.1-3.2-0.2-4.2-0.3c-3.1,2,1.9,7.9-4.9,7.5c0-3.7,0-7.3,0-11.2
	c4.2,0,8.5,0,13.2,0c0,3.1,0.2,6-0.1,8.9C330.8,319.7,329.2,320.4,327.9,320.9z"/>
<path class="st13" d="M191.5,277.7c2.2,0,4,0,6.1,0c0-5.9,0-11.4,0-16.8c0.4-0.3,0.9-0.6,1.3-0.9c0.9,1.1,2.5,2.1,2.5,3.2
	c0.3,5.9,0.1,11.9,0.1,18.5c-3.4,0-6.5,0.2-9.6-0.1C188.8,281.2,189,279.5,191.5,277.7z"/>
<path class="st10" d="M267.3,210.5c0.9,4.3,1.4,8.6,1.8,12.9c-10,1.6-11.8,1.1-11.4-3.2c2.1,0,4.2,0,6.7,0c0-2,0-3.7,0-5.7
	c-1.8,0-3.5,0.2-5.1-0.1c-0.8-0.2-1.5-1.2-2.2-1.9c0.7-0.7,1.4-1.8,2.3-1.9C261.8,210.2,264.3,210.4,267.3,210.5z"/>
<path class="st9" d="M355,194.4c1.4,0.8,2.4,1.7,3.5,2.5c-0.3,0.4-0.5,0.8-0.8,1.2c-2.2,0.2-4.5,0.3-6.9,0.5c0,1.8,0,3.4,0,5.2
	c2.3,0,4.4,0,6.5,0c0.9,4.7,0.7,4.8-10.3,3.8c0-4.2,0-8.4,0-13.2C349.4,194.4,352,194.4,355,194.4z"/>
<path class="st8" d="M124.4,288.6c-2.9,1-3.8,0-3.7-2.7c0.2-4.5,0-8.9,0-13.7c-2.5-0.2-4.7-0.3-6.9-0.4c-0.6-4.2,0.3-4.6,10.8-3.3
	C124.6,275,124.6,281.6,124.4,288.6z"/>
<path class="st13" d="M350.4,237.3c0,6.3,0,12.1,0,18.3c-3.9,0-7.4,0-11,0c-0.7-3.3-0.7-3.3,6.9-3.8c0-5.5,0-11,0-16.6
	c0.4-0.3,0.8-0.5,1.2-0.8C348.5,235.2,349.4,236,350.4,237.3z"/>
<path class="st4" d="M402.5,284.9c-2.8,0-5,0-7.7,0c0-4.6,0-8.8,0-13c7.4-1.9,10.7-1.1,10.7,3c-2.2,0.2-4.5,0.3-6.9,0.5
	c0,1.8,0,3.4,0,5.3c2.4,0.2,4.6,0.3,6.9,0.5c0.3,0.4,0.5,0.8,0.8,1.2C405.2,283.2,404.1,284,402.5,284.9z"/>
<path class="st8" d="M115,262.4c-1.5-0.9-3.4-1.7-3.6-2.8c-0.5-2.7-0.2-5.5-0.2-8.7c6.3-0.2,2.5,5,4.3,6.8c1.6,2.5,7.6-2.1,7,4.6
	C120,262.4,117.7,262.4,115,262.4z"/>
<path class="st3" d="M479.2,165.6c1.5,0.7,2.5,1.3,3.5,2c-0.9,0.7-1.7,1.8-2.7,1.9c-2.8,0.3-5.5,0.1-8.6,0.1c0-4.1,0-7.7,0-11.2
	c3.2-1.3,3.9,0.4,3.6,3.1C474.9,164.1,475.3,166.1,479.2,165.6z"/>
<path class="st14" d="M484.3,265.6c-0.9-1.1-1.4-2.1-2.2-3.7c3.1-0.2,5.3-0.4,8-0.6c0.2-2.3,0.3-4.5,0.5-6.8c4.4-0.6,4.8,0.5,3.3,11
	C490.9,265.6,487.8,265.6,484.3,265.6z"/>
<path class="st10" d="M396.2,310.4c-0.6,1.3-1.2,3-2.1,3.1c-2.9,0.3-5.9,0.1-8.7,0.1c-1.8-8.6-1.1-11.2,3.1-11.4
	c0.1,2.3,0.2,4.5,0.4,7.1C391.3,309.5,393.7,309.8,396.2,310.4z"/>
<path class="st13" d="M120.7,195.1c-2.6,0-4.8,0-7,0c-1.2-2.8-0.7-4.1,2.5-4c4.5,0.1,8.9-0.1,13.4,0.1c1.2,0.1,2.2,1.6,3.3,2.4
	c-0.3,0.5-0.6,1-0.8,1.5C128.4,195.1,124.8,195.1,120.7,195.1z"/>
<path class="st14" d="M503.9,208.9c-0.6,2.6-1.4,6.6-1.7,6.6c-4.2-0.5-2-4-2.2-6.2c-0.4-3.4-0.3-7,0-10.4c0.1-1.1,1.5-2.1,2.4-3.1
	c0.5,0.3,1,0.5,1.5,0.8C503.9,200.5,503.9,204.5,503.9,208.9z"/>
<path class="st5" d="M337.9,167.8c1.2,0.7,2.5,1.3,2.6,2.1c0.3,2.8,0.1,5.6,0.1,8.8c-3.7,0-7.3,0-11.6,0c0-5.7,5.1-2.5,7.2-3.9
	C336.7,172.5,337.1,170.2,337.9,167.8z"/>
<path class="st9" d="M394.9,225.6c6.8-0.8,1.6,4.9,4.7,7.1c1.5,0.1,3.7,0.2,5.9,0.4c0.1,4.4,0.1,4.4-10.9,3.5
	C394.6,233.1,394.6,229.5,394.9,225.6z"/>
<path class="st10" d="M283.9,203.9c0-3-0.2-5.5,0.1-7.9c0.2-1.2,1.4-2.3,2.2-3.4c0.5,0.2,0.9,0.5,1.4,0.7c0,6.2,0,12.4,0,18.6
	C283.9,211.9,283.9,211.9,283.9,203.9z"/>
<path class="st2" d="M95.3,172.4c0.4,3.8,0.4,7.2,0.4,10.7c-3.3,0.3-3.3,0.3-4.2-6.9c-2.1-0.1-4.2-0.2-6.5-0.3
	c-1.2-2.6-0.8-4,2.4-3.8C89.9,172.1,92.4,172.1,95.3,172.4z"/>
<path class="st5" d="M340.6,226.5c0.1,6.1,0.1,11.7,0.1,17.3c-0.4,0.3-0.9,0.6-1.3,0.9c-0.9-1.1-2.5-2.1-2.5-3.2
	c-0.3-4.5-0.1-8.9-0.1-13.4C336.7,225,337.9,224.1,340.6,226.5z"/>
<path class="st11" d="M317.6,247.9c0-4.5,0-8.4,0-12.4c0.4-0.3,0.7-0.7,1.1-1c0.9,1,2.6,2,2.7,3c0.3,4.6,0.3,9.3,0,14
	c-0.1,1.1-1.6,2.1-2.4,3.1c-0.5-0.3-0.9-0.6-1.4-0.8C317.6,252,317.6,250.2,317.6,247.9z"/>
<path class="st12" d="M432.7,285.3c1-1.3,1.9-2.1,3.6-3.5c0.2,2.2,0.3,3,0.3,3.8c0,5.3,0,10.6,0,15.9c-0.4,0.3-0.8,0.6-1.3,0.9
	c-0.9-1.1-2.5-2.1-2.6-3.2C432.6,294.8,432.7,290.3,432.7,285.3z"/>
<path class="st11" d="M211,303c0,1.3,0.2,2.2-0.1,3c-0.4,0.9-1.2,1.6-1.8,2.3c-0.6-0.7-1.6-1.4-1.8-2.2c-0.3-1.4-0.1-2.9-0.1-3.9
	c-2-3.2-8,1.7-7.7-5c3.7,0,7.2,0,11.4,0C211,299,211,300.8,211,303z"/>
<path class="st15" d="M211,324.1c0,3.8,0.1,7.1-0.1,10.4c-0.1,0.9-1.2,1.8-1.9,2.6c-0.6-0.8-1.6-1.5-1.7-2.3
	c-0.2-4.8-0.2-9.6,0-14.4c0-1,1.4-1.9,2.2-2.8c0.5,0.3,1,0.5,1.4,0.8C211,320.1,211,321.8,211,324.1z"/>
<path class="st14" d="M239.9,149.1c0,2.1,0,3.7,0,5.3c-0.5,0.3-0.9,0.6-1.4,0.9c-0.9-1-2.5-2-2.5-2.9c0-2.4,0.8-4.8,1.3-7.2
	C238.1,146.3,239,147.5,239.9,149.1z"/>
<path class="st3" d="M218.7,356.3c1.2,3,1.9,6.1,2.9,10.3c-2.5-0.7-4.6-1.1-4.6-1.3C217.3,362.2,217.8,359.3,218.7,356.3z"/>
<path class="st10" d="M395.1,348.1c2.2,2.6,1.5,4.3-1.5,3.7c-2.4-0.4-6.9,2.7-6.9-3.8C389.5,348,392.1,348,395.1,348.1z"/>
<path class="st10" d="M363.6,348c1.8,0.7,3.1,1.4,4.5,2c-0.2,0.6-0.4,1.3-0.7,1.9c-2.1,0-4.2,0.2-6.2-0.1c-1.2-0.2-2.2-1.1-3.4-1.7
	c1.1-0.7,2.2-1.6,3.4-2.2C361.7,347.8,362.5,348,363.6,348z"/>
<path class="st13" d="M293.6,150c0-1.7,0-3,0-4.3c0.4-0.3,0.8-0.6,1.2-1c0.9,1,2.8,2.2,2.6,3c-0.5,2.5,2.6,6.9-3.6,7.2
	C293.8,153.3,293.7,151.9,293.6,150z"/>
<path class="st3" d="M209.1,366.8c-3,0.7-5.8,1.1-10.1,1.6c0.9-2.1,1.7-4.2,1.9-4.2C203.7,365,207.7,361.6,209.1,366.8z"/>
<path class="st13" d="M152.9,287.2c2.3,0,4.2-0.4,5.9,0.1c1.1,0.3,1.9,1.6,2.9,2.4c-0.2,0.4-0.5,0.7-0.7,1.1c-2.9,0-5.8,0-9.5,0
	C151.8,289.6,152.2,288.4,152.9,287.2z"/>
<path class="st14" d="M230.4,324.7c-0.8,1.3-1.7,2.2-2.5,3.1c-0.5-0.9-1.3-1.7-1.4-2.6c-0.2-2.1-0.1-4.2-0.1-6.3
	C230.4,317.8,230.4,317.8,230.4,324.7z"/>
<path class="st14" d="M226.5,194.4c2.2-1.9,4.1-1.8,3.8,1.2c-0.3,2.5,2.4,6.9-3.8,7.4C226.5,200.1,226.5,197.5,226.5,194.4z"/>
<path class="st2" d="M197.7,309.5c2.1-1.8,4.2-1.9,3.7,1.1c-0.3,2.5,2.7,7.2-3.8,7.4C197.6,315.1,197.6,312.6,197.7,309.5z"/>
<path class="st14" d="M490.8,302.4c6-0.9,3.1,3.5,3.5,5.7c0.2,1.2-1.3,2.7-2,4c-0.6-0.2-1.2-0.5-1.8-0.7
	C490.5,308.6,490.5,305.7,490.8,302.4z"/>
<path class="st13" d="M168.7,246.9c0.5-2.6-1.5-6.5,3.8-5.5c0,3,0,5.9,0,8.8C169,252,168.6,250.1,168.7,246.9z"/>
<path class="st11" d="M150.6,183.8c5.5,0.9,2,4.8,2.8,7.2c0.2,0.6-1.5,1.8-2.4,2.8c-0.5-0.2-1-0.5-1.5-0.7
	C149.7,190,149.9,186.9,150.6,183.8z"/>
<path class="st12" d="M121.1,299.4c1.4,0.3,3.3,0.8,3.4,1.6c0.4,2.2,0.2,4.6,0.2,6.9C120.6,307.9,120.6,307.9,121.1,299.4z"/>
<path class="st5" d="M138.6,147.1c-2.1,0-3.8,0-6.6,0c0.9-1.7,1.5-3.8,2-3.8c2.6,0,5.2,0.7,7.8,1.1
	C140.9,145.3,139.9,146.2,138.6,147.1z"/>
<path class="st5" d="M93.8,146.1c-3,0.7-5.9,1-10.4,1.4c1.4-2.2,2.4-4.2,2.8-4.1C88.7,144,92.6,140.8,93.8,146.1z"/>
<path class="st5" d="M229,364.4c2.4-0.3,4.4-0.6,6.3-0.2c1.1,0.2,2,1.6,2.4,3.2C234.7,366,229.6,371.7,229,364.4z"/>
<path class="st15" d="M209.6,212.2c-2.2-1.5-3.2-7.8-1.8-8.9c0.4-0.4,1.3-0.6,1.8-0.3c0.6,0.3,1.3,1.1,1.3,1.6
	C210.8,207.1,210.4,209.6,209.6,212.2z"/>
</svg>
